<?xml version="1.0" encoding="UTF-8" standalone="no"?>
<svg
   xmlns:dc="http://purl.org/dc/elements/1.1/"
   xmlns:cc="http://creativecommons.org/ns#"
   xmlns:rdf="http://www.w3.org/1999/02/22-rdf-syntax-ns#"
   xmlns:svg="http://www.w3.org/2000/svg"
   xmlns="http://www.w3.org/2000/svg"
   xmlns:sodipodi="http://sodipodi.sourceforge.net/DTD/sodipodi-0.dtd"
   xmlns:inkscape="http://www.inkscape.org/namespaces/inkscape"
   width="1360.133911pt"
   height="423.513092pt"
   viewBox="0 0 1360.133911 423.513092"
   version="1.2"
   id="svg69"
   sodipodi:docname="logo_fiuba.pdf"
   inkscape:version="1.0.1 (3bc2e81, 2020-09-07)">
  <metadata
     id="metadata75">
    <rdf:RDF>
      <cc:Work
         rdf:about="">
        <dc:format>image/svg+xml</dc:format>
        <dc:type
           rdf:resource="http://purl.org/dc/dcmitype/StillImage" />
        <dc:title></dc:title>
      </cc:Work>
    </rdf:RDF>
  </metadata>
  <defs
     id="defs73" />
  <sodipodi:namedview
     pagecolor="#ffffff"
     bordercolor="#666666"
     borderopacity="1"
     objecttolerance="10"
     gridtolerance="10"
     guidetolerance="10"
     inkscape:pageopacity="0"
     inkscape:pageshadow="2"
     inkscape:window-width="1918"
     inkscape:window-height="1047"
     id="namedview71"
     showgrid="false"
     inkscape:zoom="0.67025563"
     inkscape:cx="837.38158"
     inkscape:cy="311.31466"
     inkscape:window-x="0"
     inkscape:window-y="31"
     inkscape:window-maximized="1"
     inkscape:current-layer="svg69" />
  <g
     id="surface10835">
    <path
       style=" stroke:none;fill-rule:nonzero;fill:rgb(13.725281%,60.783386%,82.351685%);fill-opacity:1;"
       d="M 1147.382812 36.8125 C 1142.566406 36.824219 1137.753906 37.113281 1132.96875 37.675781 C 1132.695312 37.707031 1132.425781 37.738281 1132.15625 37.773438 C 1131.925781 37.800781 1131.695312 37.828125 1131.46875 37.859375 C 1131.398438 37.867188 1131.328125 37.878906 1131.261719 37.886719 C 1130.746094 37.953125 1130.234375 38.023438 1129.722656 38.097656 C 1129.453125 38.136719 1129.183594 38.175781 1128.914062 38.21875 C 1128.644531 38.257812 1128.371094 38.300781 1128.101562 38.34375 C 1127.832031 38.382812 1127.566406 38.425781 1127.296875 38.472656 C 1127.027344 38.515625 1126.757812 38.558594 1126.488281 38.605469 C 1125.730469 38.734375 1124.972656 38.871094 1124.214844 39.015625 C 1124.132812 39.03125 1124.054688 39.042969 1123.976562 39.058594 C 1123.203125 39.207031 1122.433594 39.363281 1121.664062 39.523438 C 1121.398438 39.582031 1121.132812 39.636719 1120.867188 39.695312 C 1120.617188 39.75 1120.371094 39.804688 1120.121094 39.859375 C 1120.085938 39.867188 1120.046875 39.875 1120.011719 39.882812 C 1119.792969 39.933594 1119.574219 39.984375 1119.355469 40.03125 C 1119.316406 40.042969 1119.28125 40.050781 1119.242188 40.058594 C 1118.984375 40.117188 1118.726562 40.179688 1118.472656 40.242188 C 1118.207031 40.304688 1117.941406 40.367188 1117.675781 40.433594 C 1117.453125 40.488281 1117.234375 40.542969 1117.011719 40.597656 C 1116.941406 40.613281 1116.867188 40.632812 1116.796875 40.652344 C 1116.558594 40.710938 1116.324219 40.769531 1116.089844 40.832031 C 1115.824219 40.898438 1115.5625 40.96875 1115.300781 41.039062 C 1115.296875 41.039062 1115.296875 41.039062 1115.292969 41.039062 C 1115.066406 41.101562 1114.835938 41.164062 1114.605469 41.226562 C 1114.558594 41.238281 1114.515625 41.25 1114.46875 41.261719 C 1114.21875 41.332031 1113.96875 41.398438 1113.71875 41.46875 C 1113.457031 41.542969 1113.191406 41.617188 1112.929688 41.691406 C 1112.683594 41.761719 1112.433594 41.835938 1112.1875 41.90625 C 1112.160156 41.914062 1112.132812 41.921875 1112.105469 41.929688 C 1111.910156 41.988281 1111.71875 42.046875 1111.523438 42.105469 C 1111.449219 42.125 1111.371094 42.148438 1111.296875 42.171875 C 1111.054688 42.242188 1110.816406 42.316406 1110.578125 42.390625 C 1110.316406 42.472656 1110.054688 42.550781 1109.796875 42.632812 C 1109.601562 42.695312 1109.40625 42.757812 1109.210938 42.820312 C 1109.089844 42.859375 1108.96875 42.898438 1108.847656 42.9375 C 1108.738281 42.972656 1108.628906 43.007812 1108.519531 43.042969 C 1108.386719 43.085938 1108.25 43.128906 1108.117188 43.175781 C 1107.957031 43.226562 1107.792969 43.28125 1107.632812 43.335938 C 1107.558594 43.359375 1107.484375 43.386719 1107.410156 43.410156 C 1107.167969 43.492188 1106.929688 43.574219 1106.6875 43.65625 C 1106.429688 43.746094 1106.171875 43.835938 1105.914062 43.925781 C 1105.65625 44.015625 1105.398438 44.105469 1105.140625 44.199219 C 1104.886719 44.289062 1104.628906 44.382812 1104.371094 44.476562 C 1104.117188 44.570312 1103.863281 44.664062 1103.609375 44.757812 C 1103.605469 44.757812 1103.605469 44.761719 1103.601562 44.761719 C 1103.367188 44.847656 1103.128906 44.9375 1102.894531 45.027344 C 1102.863281 45.039062 1102.832031 45.050781 1102.800781 45.0625 C 1102.617188 45.132812 1102.4375 45.203125 1102.253906 45.273438 C 1102.160156 45.308594 1102.0625 45.34375 1101.96875 45.382812 C 1101.855469 45.425781 1101.742188 45.472656 1101.628906 45.515625 C 1101.433594 45.589844 1101.242188 45.667969 1101.050781 45.742188 C 1100.796875 45.84375 1100.546875 45.945312 1100.292969 46.046875 C 1100.089844 46.128906 1099.886719 46.210938 1099.683594 46.296875 C 1099.542969 46.355469 1099.398438 46.414062 1099.253906 46.472656 C 1099.128906 46.527344 1099 46.578125 1098.875 46.632812 C 1098.710938 46.699219 1098.546875 46.769531 1098.382812 46.839844 C 1098.34375 46.855469 1098.300781 46.875 1098.261719 46.890625 C 1098.082031 46.96875 1097.898438 47.046875 1097.71875 47.121094 C 1097.617188 47.167969 1097.515625 47.210938 1097.414062 47.253906 C 1097.226562 47.335938 1097.039062 47.417969 1096.851562 47.5 C 1096.820312 47.515625 1096.789062 47.527344 1096.757812 47.542969 C 1096.515625 47.648438 1096.273438 47.757812 1096.035156 47.863281 C 1095.785156 47.976562 1095.539062 48.085938 1095.289062 48.199219 C 1095.121094 48.277344 1094.957031 48.351562 1094.789062 48.429688 C 1094.628906 48.503906 1094.464844 48.582031 1094.300781 48.65625 C 1094.289062 48.660156 1094.28125 48.667969 1094.269531 48.671875 C 1094.0625 48.769531 1093.851562 48.867188 1093.644531 48.964844 C 1093.519531 49.023438 1093.394531 49.082031 1093.269531 49.144531 C 1093.171875 49.1875 1093.078125 49.234375 1092.984375 49.28125 C 1092.980469 49.28125 1092.980469 49.28125 1092.976562 49.285156 C 1092.238281 49.636719 1091.507812 50 1090.777344 50.367188 C 1090.660156 50.425781 1090.542969 50.488281 1090.425781 50.546875 C 1090.417969 50.550781 1090.410156 50.554688 1090.402344 50.558594 C 1090.398438 50.558594 1090.398438 50.558594 1090.394531 50.5625 C 1048.074219 72.113281 1021.421875 115.589844 1021.421875 163.085938 C 1021.421875 163.132812 1021.421875 163.179688 1021.421875 163.226562 C 1021.421875 163.242188 1021.421875 163.261719 1021.421875 163.28125 C 1021.421875 163.308594 1021.425781 163.332031 1021.425781 163.355469 C 1021.425781 164.265625 1021.4375 165.175781 1021.460938 166.085938 C 1021.464844 166.34375 1021.472656 166.601562 1021.480469 166.863281 C 1021.5 167.484375 1021.523438 168.105469 1021.550781 168.730469 C 1021.574219 169.273438 1021.601562 169.820312 1021.632812 170.363281 C 1021.636719 170.390625 1021.636719 170.417969 1021.636719 170.445312 C 1021.652344 170.691406 1021.667969 170.933594 1021.683594 171.179688 C 1021.71875 171.726562 1021.757812 172.269531 1021.800781 172.8125 C 1021.800781 172.839844 1021.804688 172.867188 1021.804688 172.894531 C 1021.824219 173.140625 1021.84375 173.382812 1021.867188 173.628906 C 1021.882812 173.859375 1021.90625 174.089844 1021.925781 174.320312 C 1021.929688 174.375 1021.933594 174.429688 1021.941406 174.488281 C 1021.941406 174.5 1021.941406 174.511719 1021.941406 174.523438 C 1021.964844 174.769531 1021.988281 175.015625 1022.011719 175.261719 C 1022.015625 175.285156 1022.015625 175.3125 1022.019531 175.339844 C 1022.042969 175.585938 1022.070312 175.828125 1022.09375 176.074219 C 1022.121094 176.328125 1022.148438 176.582031 1022.175781 176.835938 C 1022.175781 176.859375 1022.179688 176.882812 1022.183594 176.90625 C 1022.183594 176.925781 1022.1875 176.945312 1022.191406 176.96875 C 1022.214844 177.210938 1022.246094 177.457031 1022.273438 177.699219 C 1022.367188 178.511719 1022.46875 179.324219 1022.582031 180.136719 C 1022.652344 180.660156 1022.726562 181.179688 1022.804688 181.703125 C 1022.808594 181.726562 1022.8125 181.75 1022.816406 181.773438 C 1022.816406 181.792969 1022.820312 181.816406 1022.824219 181.835938 C 1022.859375 182.078125 1022.898438 182.320312 1022.9375 182.566406 C 1023.019531 183.105469 1023.109375 183.644531 1023.199219 184.179688 C 1023.203125 184.207031 1023.207031 184.234375 1023.210938 184.261719 C 1023.253906 184.503906 1023.296875 184.746094 1023.339844 184.988281 C 1023.433594 185.523438 1023.53125 186.058594 1023.632812 186.597656 C 1023.683594 186.863281 1023.734375 187.132812 1023.789062 187.402344 C 1023.894531 187.9375 1024 188.46875 1024.113281 189.003906 C 1024.117188 189.03125 1024.125 189.058594 1024.128906 189.082031 C 1024.179688 189.324219 1024.230469 189.5625 1024.285156 189.804688 C 1024.398438 190.335938 1024.519531 190.871094 1024.640625 191.402344 C 1024.644531 191.429688 1024.652344 191.453125 1024.65625 191.480469 C 1024.714844 191.71875 1024.769531 191.960938 1024.828125 192.199219 C 1024.953125 192.730469 1025.082031 193.261719 1025.214844 193.789062 C 1025.28125 194.054688 1025.347656 194.316406 1025.417969 194.582031 C 1025.550781 195.109375 1025.691406 195.636719 1025.835938 196.164062 C 1025.839844 196.191406 1025.847656 196.214844 1025.855469 196.242188 C 1026.0625 197.007812 1026.277344 197.769531 1026.5 198.527344 C 1026.730469 199.3125 1026.96875 200.097656 1027.210938 200.878906 C 1027.21875 200.902344 1027.226562 200.929688 1027.234375 200.953125 C 1027.386719 201.4375 1027.542969 201.921875 1027.699219 202.402344 C 1027.707031 202.417969 1027.710938 202.433594 1027.714844 202.449219 C 1027.722656 202.46875 1027.730469 202.492188 1027.738281 202.511719 C 1027.8125 202.746094 1027.890625 202.980469 1027.96875 203.210938 C 1028.03125 203.390625 1028.089844 203.570312 1028.152344 203.75 C 1028.1875 203.851562 1028.222656 203.953125 1028.257812 204.058594 C 1028.257812 204.058594 1028.257812 204.0625 1028.257812 204.0625 C 1028.339844 204.296875 1028.417969 204.527344 1028.5 204.761719 C 1028.507812 204.785156 1028.519531 204.8125 1028.527344 204.835938 C 1028.609375 205.070312 1028.691406 205.300781 1028.773438 205.53125 C 1029.046875 206.304688 1029.332031 207.070312 1029.621094 207.835938 C 1029.910156 208.601562 1030.207031 209.363281 1030.511719 210.125 C 1030.816406 210.882812 1031.128906 211.640625 1031.449219 212.390625 C 1031.652344 212.871094 1031.859375 213.351562 1032.070312 213.828125 C 1032.082031 213.859375 1032.09375 213.890625 1032.109375 213.917969 C 1032.117188 213.933594 1032.121094 213.953125 1032.128906 213.96875 C 1032.230469 214.195312 1032.328125 214.417969 1032.429688 214.640625 C 1032.765625 215.390625 1033.105469 216.132812 1033.453125 216.875 C 1033.6875 217.367188 1033.921875 217.859375 1034.160156 218.351562 C 1034.171875 218.375 1034.183594 218.398438 1034.195312 218.421875 C 1034.421875 218.890625 1034.652344 219.355469 1034.886719 219.816406 C 1035.132812 220.304688 1035.378906 220.789062 1035.632812 221.273438 C 1035.644531 221.296875 1035.65625 221.320312 1035.667969 221.34375 C 1035.78125 221.5625 1035.894531 221.78125 1036.011719 222 C 1036.136719 222.242188 1036.265625 222.480469 1036.394531 222.722656 C 1036.523438 222.960938 1036.652344 223.203125 1036.785156 223.441406 C 1036.914062 223.679688 1037.046875 223.921875 1037.179688 224.160156 C 1037.277344 224.339844 1037.375 224.519531 1037.476562 224.699219 C 1037.515625 224.769531 1037.558594 224.84375 1037.597656 224.917969 C 1037.605469 224.925781 1037.609375 224.933594 1037.613281 224.945312 C 1037.734375 225.160156 1037.855469 225.371094 1037.976562 225.585938 C 1037.992188 225.609375 1038.003906 225.632812 1038.015625 225.65625 C 1038.140625 225.871094 1038.261719 226.082031 1038.386719 226.296875 C 1038.523438 226.53125 1038.660156 226.769531 1038.796875 227.003906 C 1038.914062 227.203125 1039.03125 227.402344 1039.152344 227.601562 C 1039.175781 227.644531 1039.203125 227.691406 1039.230469 227.734375 C 1039.238281 227.75 1039.246094 227.761719 1039.253906 227.777344 C 1039.519531 228.222656 1039.789062 228.667969 1040.0625 229.109375 C 1040.34375 229.574219 1040.632812 230.035156 1040.925781 230.496094 C 1041.070312 230.730469 1041.21875 230.960938 1041.363281 231.1875 C 1041.378906 231.210938 1041.394531 231.234375 1041.40625 231.257812 C 1041.539062 231.464844 1041.671875 231.671875 1041.808594 231.875 C 1042.105469 232.332031 1042.40625 232.789062 1042.710938 233.242188 C 1042.859375 233.46875 1043.011719 233.695312 1043.167969 233.921875 C 1043.179688 233.945312 1043.195312 233.964844 1043.210938 233.988281 C 1043.65625 234.644531 1044.105469 235.292969 1044.5625 235.941406 C 1045.191406 236.832031 1045.832031 237.714844 1046.484375 238.589844 C 1046.8125 239.027344 1047.140625 239.460938 1047.472656 239.894531 C 1047.777344 240.292969 1048.085938 240.691406 1048.394531 241.085938 C 1048.433594 241.132812 1048.472656 241.183594 1048.511719 241.230469 C 1048.515625 241.238281 1048.519531 241.246094 1048.527344 241.25 C 1048.679688 241.445312 1048.832031 241.636719 1048.984375 241.828125 C 1049.15625 242.042969 1049.324219 242.253906 1049.496094 242.46875 C 1050.011719 243.101562 1050.53125 243.734375 1051.058594 244.359375 C 1051.074219 244.382812 1051.09375 244.402344 1051.109375 244.421875 C 1051.269531 244.609375 1051.429688 244.796875 1051.585938 244.984375 C 1051.941406 245.402344 1052.296875 245.8125 1052.65625 246.222656 C 1053.015625 246.636719 1053.378906 247.042969 1053.742188 247.449219 C 1054.085938 247.832031 1054.433594 248.214844 1054.78125 248.59375 C 1054.8125 248.628906 1054.84375 248.660156 1054.875 248.695312 C 1054.882812 248.703125 1054.890625 248.710938 1054.898438 248.71875 C 1055.25 249.101562 1055.605469 249.480469 1055.960938 249.855469 C 1056.523438 250.449219 1057.089844 251.039062 1057.664062 251.625 C 1057.683594 251.644531 1057.703125 251.660156 1057.722656 251.679688 C 1057.894531 251.855469 1058.066406 252.03125 1058.242188 252.207031 C 1059.011719 252.976562 1059.792969 253.742188 1060.582031 254.492188 C 1060.777344 254.679688 1060.976562 254.867188 1061.175781 255.054688 C 1061.304688 255.175781 1061.433594 255.296875 1061.5625 255.417969 C 1061.644531 255.496094 1061.730469 255.578125 1061.816406 255.65625 C 1061.820312 255.660156 1061.828125 255.664062 1061.832031 255.667969 C 1062.011719 255.835938 1062.191406 256.003906 1062.375 256.171875 C 1062.394531 256.1875 1062.414062 256.207031 1062.433594 256.226562 C 1062.613281 256.390625 1062.796875 256.554688 1062.980469 256.722656 C 1063.351562 257.058594 1063.726562 257.394531 1064.105469 257.726562 C 1064.148438 257.765625 1064.191406 257.804688 1064.238281 257.84375 C 1064.246094 257.851562 1064.253906 257.859375 1064.257812 257.863281 C 1064.445312 258.027344 1064.628906 258.1875 1064.816406 258.351562 C 1064.835938 258.367188 1064.855469 258.386719 1064.875 258.402344 C 1065.0625 258.5625 1065.25 258.726562 1065.433594 258.886719 C 1065.640625 259.0625 1065.847656 259.238281 1066.058594 259.417969 C 1066.078125 259.433594 1066.097656 259.453125 1066.117188 259.46875 C 1066.308594 259.628906 1066.496094 259.785156 1066.683594 259.945312 C 1066.703125 259.960938 1066.722656 259.976562 1066.742188 259.996094 C 1066.933594 260.152344 1067.121094 260.308594 1067.3125 260.46875 C 1067.332031 260.484375 1067.351562 260.5 1067.375 260.519531 C 1067.5625 260.675781 1067.753906 260.832031 1067.945312 260.984375 C 1068.339844 261.308594 1068.738281 261.625 1069.132812 261.941406 C 1069.179688 261.976562 1069.222656 262.011719 1069.265625 262.042969 C 1069.269531 262.050781 1069.277344 262.054688 1069.285156 262.0625 C 1069.476562 262.214844 1069.671875 262.367188 1069.863281 262.519531 C 1070.003906 262.628906 1070.144531 262.738281 1070.285156 262.847656 C 1070.359375 262.902344 1070.433594 262.960938 1070.511719 263.019531 C 1070.53125 263.035156 1070.550781 263.050781 1070.574219 263.070312 C 1070.769531 263.21875 1070.964844 263.367188 1071.160156 263.519531 C 1071.179688 263.535156 1071.203125 263.550781 1071.222656 263.566406 C 1071.417969 263.714844 1071.617188 263.863281 1071.8125 264.011719 C 1071.832031 264.027344 1071.855469 264.042969 1071.875 264.058594 C 1072.074219 264.207031 1072.269531 264.355469 1072.46875 264.5 C 1072.488281 264.515625 1072.511719 264.535156 1072.53125 264.550781 C 1072.730469 264.695312 1072.929688 264.839844 1073.125 264.984375 C 1073.347656 265.148438 1073.566406 265.308594 1073.789062 265.46875 C 1073.808594 265.484375 1073.832031 265.5 1073.851562 265.515625 C 1074.054688 265.660156 1074.253906 265.800781 1074.453125 265.945312 C 1074.476562 265.960938 1074.496094 265.976562 1074.519531 265.992188 C 1074.71875 266.132812 1074.921875 266.277344 1075.121094 266.417969 C 1075.308594 266.546875 1075.496094 266.679688 1075.683594 266.808594 C 1075.738281 266.847656 1075.789062 266.882812 1075.84375 266.917969 C 1075.847656 266.921875 1075.851562 266.925781 1075.859375 266.929688 C 1076.0625 267.070312 1076.261719 267.210938 1076.464844 267.347656 C 1076.488281 267.363281 1076.511719 267.378906 1076.53125 267.394531 C 1076.734375 267.53125 1076.941406 267.671875 1077.144531 267.808594 C 1077.5625 268.089844 1077.984375 268.371094 1078.410156 268.648438 C 1078.457031 268.679688 1078.507812 268.714844 1078.554688 268.746094 C 1078.5625 268.75 1078.566406 268.753906 1078.574219 268.757812 C 1078.78125 268.894531 1078.988281 269.027344 1079.195312 269.160156 C 1079.421875 269.308594 1079.652344 269.457031 1079.882812 269.601562 C 1080.101562 269.742188 1080.324219 269.882812 1080.542969 270.019531 C 1080.554688 270.027344 1080.570312 270.035156 1080.582031 270.042969 C 1080.601562 270.058594 1080.621094 270.070312 1080.640625 270.082031 C 1080.851562 270.210938 1081.058594 270.34375 1081.269531 270.472656 C 1081.390625 270.546875 1081.511719 270.621094 1081.632812 270.695312 C 1081.742188 270.765625 1081.855469 270.832031 1081.964844 270.902344 C 1081.988281 270.914062 1082.011719 270.929688 1082.035156 270.941406 C 1082.246094 271.070312 1082.453125 271.199219 1082.664062 271.324219 C 1082.6875 271.339844 1082.710938 271.351562 1082.734375 271.367188 C 1082.945312 271.492188 1083.15625 271.617188 1083.367188 271.742188 C 1083.390625 271.757812 1083.414062 271.769531 1083.4375 271.785156 C 1083.648438 271.910156 1083.863281 272.035156 1084.074219 272.15625 C 1084.273438 272.273438 1084.476562 272.390625 1084.675781 272.507812 C 1084.722656 272.535156 1084.769531 272.558594 1084.816406 272.585938 C 1084.890625 272.632812 1084.96875 272.675781 1085.046875 272.71875 C 1085.214844 272.816406 1085.378906 272.910156 1085.546875 273.003906 C 1085.554688 273.007812 1085.558594 273.011719 1085.5625 273.011719 C 1085.777344 273.132812 1085.992188 273.253906 1086.207031 273.375 C 1086.324219 273.441406 1086.441406 273.503906 1086.5625 273.570312 C 1086.683594 273.636719 1086.800781 273.703125 1086.921875 273.769531 C 1086.945312 273.785156 1086.96875 273.796875 1086.992188 273.808594 C 1087.214844 273.929688 1087.4375 274.050781 1087.660156 274.171875 C 1087.679688 274.183594 1087.695312 274.191406 1087.710938 274.199219 C 1087.929688 274.316406 1088.144531 274.433594 1088.363281 274.546875 C 1088.386719 274.5625 1088.410156 274.574219 1088.433594 274.585938 C 1088.648438 274.703125 1088.867188 274.816406 1089.085938 274.929688 C 1089.328125 275.058594 1089.570312 275.183594 1089.8125 275.308594 C 1089.835938 275.320312 1089.859375 275.332031 1089.882812 275.34375 C 1090.101562 275.457031 1090.320312 275.570312 1090.539062 275.679688 C 1090.785156 275.804688 1091.027344 275.925781 1091.269531 276.046875 C 1091.296875 276.0625 1091.320312 276.074219 1091.34375 276.085938 C 1091.808594 276.316406 1092.273438 276.546875 1092.742188 276.769531 C 1092.980469 276.886719 1093.222656 277.003906 1093.464844 277.121094 C 1093.46875 277.121094 1093.472656 277.125 1093.476562 277.125 C 1093.5 277.136719 1093.527344 277.148438 1093.550781 277.160156 C 1093.773438 277.265625 1093.996094 277.371094 1094.21875 277.472656 C 1094.242188 277.484375 1094.265625 277.496094 1094.289062 277.507812 C 1094.511719 277.613281 1094.738281 277.714844 1094.960938 277.816406 C 1095.140625 277.898438 1095.316406 277.980469 1095.496094 278.0625 C 1095.582031 278.101562 1095.671875 278.140625 1095.757812 278.179688 C 1095.765625 278.183594 1095.769531 278.1875 1095.777344 278.191406 C 1096 278.292969 1096.226562 278.390625 1096.453125 278.492188 C 1096.476562 278.503906 1096.5 278.511719 1096.523438 278.523438 C 1096.75 278.625 1096.976562 278.722656 1097.199219 278.820312 C 1097.226562 278.832031 1097.25 278.84375 1097.273438 278.855469 C 1097.5 278.953125 1097.726562 279.050781 1097.953125 279.148438 C 1098.453125 279.363281 1098.957031 279.574219 1099.460938 279.78125 C 1099.484375 279.792969 1099.511719 279.800781 1099.535156 279.8125 C 1099.761719 279.90625 1099.992188 280 1100.21875 280.089844 C 1101.480469 280.605469 1102.753906 281.097656 1104.03125 281.566406 C 1104.148438 281.609375 1104.261719 281.652344 1104.375 281.695312 C 1104.519531 281.746094 1104.660156 281.796875 1104.800781 281.847656 C 1104.828125 281.859375 1104.851562 281.867188 1104.875 281.875 C 1105.121094 281.964844 1105.367188 282.050781 1105.609375 282.136719 C 1105.621094 282.140625 1105.636719 282.148438 1105.648438 282.152344 C 1106.085938 282.304688 1106.527344 282.460938 1106.96875 282.609375 C 1107.019531 282.625 1107.070312 282.644531 1107.121094 282.660156 C 1107.144531 282.667969 1107.167969 282.675781 1107.195312 282.6875 C 1107.203125 282.6875 1107.210938 282.691406 1107.21875 282.695312 C 1107.695312 282.855469 1108.171875 283.015625 1108.648438 283.167969 C 1108.660156 283.171875 1108.671875 283.175781 1108.679688 283.179688 C 1108.703125 283.1875 1108.726562 283.195312 1108.75 283.203125 C 1108.984375 283.277344 1109.21875 283.351562 1109.453125 283.425781 C 1109.972656 283.59375 1110.492188 283.753906 1111.015625 283.910156 C 1111.039062 283.917969 1111.066406 283.925781 1111.089844 283.933594 C 1111.328125 284.007812 1111.5625 284.078125 1111.796875 284.148438 C 1112.023438 284.214844 1112.25 284.28125 1112.476562 284.347656 C 1112.527344 284.363281 1112.578125 284.375 1112.628906 284.390625 C 1112.71875 284.417969 1112.808594 284.441406 1112.898438 284.46875 C 1113.066406 284.515625 1113.234375 284.566406 1113.402344 284.613281 C 1113.476562 284.632812 1113.550781 284.652344 1113.625 284.671875 C 1113.828125 284.730469 1114.03125 284.789062 1114.234375 284.84375 C 1114.304688 284.863281 1114.371094 284.878906 1114.441406 284.898438 C 1114.875 285.015625 1115.304688 285.132812 1115.738281 285.246094 C 1115.765625 285.253906 1115.789062 285.261719 1115.816406 285.265625 C 1116.054688 285.328125 1116.292969 285.390625 1116.53125 285.453125 C 1116.742188 285.503906 1116.953125 285.558594 1117.164062 285.609375 C 1117.242188 285.628906 1117.320312 285.648438 1117.398438 285.667969 C 1117.398438 285.667969 1117.402344 285.667969 1117.402344 285.667969 C 1117.640625 285.730469 1117.882812 285.789062 1118.121094 285.84375 C 1118.144531 285.851562 1118.171875 285.859375 1118.199219 285.863281 C 1118.4375 285.921875 1118.675781 285.980469 1118.914062 286.035156 C 1119.449219 286.160156 1119.980469 286.277344 1120.511719 286.394531 C 1120.539062 286.402344 1120.5625 286.40625 1120.589844 286.414062 C 1120.832031 286.46875 1121.070312 286.519531 1121.3125 286.570312 C 1121.566406 286.625 1121.820312 286.679688 1122.078125 286.730469 C 1122.09375 286.734375 1122.109375 286.738281 1122.125 286.742188 C 1122.148438 286.746094 1122.167969 286.75 1122.191406 286.753906 C 1122.433594 286.804688 1122.671875 286.855469 1122.914062 286.902344 C 1122.941406 286.90625 1122.964844 286.914062 1122.992188 286.917969 C 1123.234375 286.964844 1123.476562 287.011719 1123.71875 287.058594 C 1123.964844 287.109375 1124.214844 287.15625 1124.464844 287.203125 C 1124.488281 287.207031 1124.511719 287.210938 1124.535156 287.214844 C 1124.554688 287.21875 1124.578125 287.222656 1124.597656 287.226562 C 1124.839844 287.273438 1125.082031 287.316406 1125.324219 287.359375 C 1125.351562 287.363281 1125.378906 287.371094 1125.40625 287.375 C 1125.890625 287.460938 1126.375 287.546875 1126.859375 287.625 C 1126.894531 287.632812 1126.933594 287.636719 1126.96875 287.644531 C 1126.984375 287.648438 1127 287.648438 1127.019531 287.652344 C 1127.261719 287.695312 1127.503906 287.734375 1127.746094 287.773438 C 1127.949219 287.804688 1128.148438 287.835938 1128.347656 287.867188 C 1128.441406 287.882812 1128.53125 287.894531 1128.625 287.910156 C 1128.683594 287.917969 1128.742188 287.925781 1128.800781 287.9375 C 1128.996094 287.964844 1129.191406 287.996094 1129.386719 288.023438 C 1129.40625 288.027344 1129.425781 288.03125 1129.445312 288.03125 C 1129.6875 288.066406 1129.929688 288.101562 1130.175781 288.136719 C 1130.386719 288.164062 1130.597656 288.195312 1130.808594 288.222656 C 1130.882812 288.234375 1130.960938 288.242188 1131.035156 288.253906 C 1131.042969 288.253906 1131.054688 288.257812 1131.0625 288.257812 C 1131.308594 288.289062 1131.554688 288.324219 1131.796875 288.351562 C 1131.824219 288.355469 1131.847656 288.359375 1131.875 288.363281 C 1132.121094 288.394531 1132.363281 288.425781 1132.609375 288.453125 C 1132.730469 288.46875 1132.851562 288.484375 1132.972656 288.496094 C 1132.980469 288.5 1132.992188 288.5 1133 288.5 C 1137.878906 289.070312 1142.785156 289.359375 1147.695312 289.359375 C 1153.109375 289.359375 1158.515625 289.011719 1163.886719 288.316406 C 1164.15625 288.28125 1164.425781 288.246094 1164.695312 288.207031 C 1164.742188 288.203125 1164.785156 288.195312 1164.828125 288.191406 C 1165.054688 288.160156 1165.28125 288.128906 1165.507812 288.097656 C 1165.550781 288.089844 1165.59375 288.082031 1165.640625 288.078125 C 1165.867188 288.042969 1166.089844 288.011719 1166.316406 287.976562 C 1166.582031 287.9375 1166.847656 287.898438 1167.113281 287.855469 C 1167.117188 287.855469 1167.121094 287.855469 1167.125 287.855469 C 1167.167969 287.847656 1167.214844 287.839844 1167.257812 287.832031 C 1167.484375 287.796875 1167.710938 287.761719 1167.933594 287.726562 C 1168.203125 287.683594 1168.472656 287.636719 1168.742188 287.59375 C 1168.785156 287.585938 1168.828125 287.578125 1168.871094 287.570312 C 1169.097656 287.53125 1169.324219 287.492188 1169.546875 287.453125 C 1170.355469 287.3125 1171.15625 287.160156 1171.960938 287.003906 C 1172.230469 286.953125 1172.496094 286.898438 1172.761719 286.84375 C 1172.808594 286.835938 1172.851562 286.828125 1172.894531 286.820312 C 1173.117188 286.773438 1173.34375 286.726562 1173.566406 286.679688 C 1173.832031 286.625 1174.097656 286.566406 1174.367188 286.507812 C 1174.410156 286.5 1174.453125 286.492188 1174.496094 286.480469 C 1174.984375 286.375 1175.476562 286.265625 1175.960938 286.152344 C 1176.496094 286.03125 1177.027344 285.90625 1177.554688 285.777344 C 1177.820312 285.710938 1178.085938 285.648438 1178.351562 285.582031 C 1179.144531 285.382812 1179.9375 285.175781 1180.726562 284.960938 C 1181.515625 284.746094 1182.304688 284.523438 1183.089844 284.296875 C 1183.324219 284.226562 1183.554688 284.160156 1183.789062 284.089844 C 1183.816406 284.082031 1183.84375 284.074219 1183.875 284.066406 C 1183.917969 284.050781 1183.960938 284.039062 1184 284.027344 C 1184.21875 283.960938 1184.4375 283.894531 1184.65625 283.828125 C 1184.917969 283.746094 1185.179688 283.667969 1185.4375 283.585938 C 1185.480469 283.574219 1185.523438 283.558594 1185.566406 283.546875 C 1185.785156 283.476562 1186.003906 283.40625 1186.21875 283.339844 C 1186.480469 283.253906 1186.738281 283.171875 1186.996094 283.085938 C 1187.515625 282.917969 1188.035156 282.742188 1188.550781 282.566406 C 1188.59375 282.550781 1188.632812 282.539062 1188.675781 282.523438 C 1188.890625 282.449219 1189.109375 282.375 1189.324219 282.300781 C 1189.367188 282.285156 1189.40625 282.269531 1189.449219 282.253906 C 1189.921875 282.089844 1190.394531 281.921875 1190.863281 281.75 C 1190.90625 281.734375 1190.949219 281.71875 1190.992188 281.703125 C 1191.203125 281.625 1191.417969 281.546875 1191.632812 281.46875 C 1191.886719 281.371094 1192.144531 281.277344 1192.398438 281.179688 C 1192.441406 281.164062 1192.484375 281.148438 1192.523438 281.132812 C 1192.992188 280.957031 1193.460938 280.773438 1193.925781 280.589844 C 1194.433594 280.390625 1194.941406 280.1875 1195.445312 279.980469 C 1196.707031 279.464844 1197.960938 278.929688 1199.207031 278.375 C 1199.953125 278.039062 1200.699219 277.699219 1201.4375 277.351562 C 1201.6875 277.234375 1201.933594 277.117188 1202.175781 277 C 1202.425781 276.882812 1202.671875 276.761719 1202.914062 276.644531 C 1203.652344 276.285156 1204.382812 275.921875 1205.113281 275.550781 C 1205.84375 275.175781 1206.566406 274.796875 1207.289062 274.410156 C 1207.769531 274.152344 1208.25 273.894531 1208.726562 273.628906 C 1208.765625 273.609375 1208.804688 273.585938 1208.84375 273.566406 C 1209.042969 273.457031 1209.242188 273.34375 1209.441406 273.230469 C 1209.679688 273.097656 1209.917969 272.964844 1210.152344 272.828125 C 1211.339844 272.15625 1212.515625 271.460938 1213.675781 270.75 C 1214.140625 270.464844 1214.605469 270.175781 1215.066406 269.886719 C 1215.527344 269.59375 1215.988281 269.300781 1216.445312 269.003906 C 1216.480469 268.980469 1216.519531 268.957031 1216.554688 268.929688 C 1216.976562 268.65625 1217.394531 268.382812 1217.8125 268.101562 C 1218.265625 267.800781 1218.71875 267.492188 1219.167969 267.183594 C 1220.742188 266.105469 1222.292969 264.988281 1223.816406 263.835938 C 1224.03125 263.671875 1224.25 263.507812 1224.464844 263.339844 C 1224.683594 263.175781 1224.898438 263.007812 1225.113281 262.84375 C 1225.328125 262.675781 1225.542969 262.507812 1225.757812 262.339844 C 1226.402344 261.832031 1227.039062 261.320312 1227.671875 260.800781 C 1228.09375 260.457031 1228.515625 260.109375 1228.933594 259.757812 C 1229.140625 259.582031 1229.351562 259.40625 1229.558594 259.226562 C 1230.804688 258.167969 1232.03125 257.082031 1233.234375 255.972656 C 1233.636719 255.605469 1234.035156 255.230469 1234.429688 254.855469 C 1234.460938 254.828125 1234.496094 254.796875 1234.527344 254.765625 C 1234.691406 254.609375 1234.859375 254.453125 1235.023438 254.292969 C 1235.417969 253.914062 1235.808594 253.535156 1236.199219 253.152344 C 1236.78125 252.578125 1237.359375 252 1237.933594 251.417969 C 1237.964844 251.382812 1237.996094 251.351562 1238.027344 251.320312 C 1238.375 250.960938 1238.722656 250.601562 1239.070312 250.238281 C 1239.257812 250.042969 1239.445312 249.84375 1239.632812 249.644531 C 1239.820312 249.445312 1240.007812 249.246094 1240.191406 249.046875 C 1240.75 248.449219 1241.300781 247.84375 1241.84375 247.234375 C 1242.027344 247.027344 1242.207031 246.824219 1242.390625 246.621094 C 1242.570312 246.414062 1242.75 246.210938 1242.929688 246.003906 C 1244.183594 244.566406 1245.402344 243.097656 1246.589844 241.601562 C 1247.269531 240.746094 1247.9375 239.882812 1248.59375 239.011719 C 1248.757812 238.792969 1248.917969 238.574219 1249.082031 238.355469 C 1249.246094 238.136719 1249.40625 237.917969 1249.566406 237.699219 C 1249.890625 237.257812 1250.210938 236.816406 1250.527344 236.371094 C 1250.84375 235.925781 1251.15625 235.480469 1251.46875 235.03125 C 1252.089844 234.136719 1252.699219 233.230469 1253.296875 232.320312 C 1253.320312 232.28125 1253.347656 232.246094 1253.371094 232.207031 C 1253.945312 231.332031 1254.507812 230.449219 1255.058594 229.558594 C 1255.34375 229.09375 1255.628906 228.628906 1255.910156 228.160156 C 1256.050781 227.925781 1256.191406 227.691406 1256.328125 227.457031 C 1256.601562 226.996094 1256.875 226.53125 1257.144531 226.0625 C 1257.148438 226.058594 1257.152344 226.050781 1257.15625 226.046875 C 1257.175781 226.007812 1257.199219 225.96875 1257.21875 225.929688 C 1257.46875 225.496094 1257.714844 225.058594 1257.960938 224.621094 C 1258.09375 224.382812 1258.226562 224.144531 1258.355469 223.90625 C 1258.488281 223.667969 1258.617188 223.425781 1258.75 223.1875 C 1258.878906 222.945312 1259.007812 222.707031 1259.136719 222.464844 C 1259.265625 222.226562 1259.390625 221.984375 1259.519531 221.742188 C 1259.644531 221.5 1259.773438 221.257812 1259.898438 221.015625 C 1260.148438 220.53125 1260.394531 220.046875 1260.636719 219.558594 C 1260.882812 219.070312 1261.121094 218.578125 1261.359375 218.089844 C 1261.480469 217.84375 1261.597656 217.597656 1261.714844 217.351562 C 1261.832031 217.105469 1261.949219 216.859375 1262.0625 216.613281 C 1262.292969 216.117188 1262.523438 215.621094 1262.746094 215.125 C 1262.859375 214.875 1262.972656 214.628906 1263.082031 214.378906 C 1263.195312 214.128906 1263.304688 213.878906 1263.414062 213.628906 C 1263.738281 212.878906 1264.058594 212.125 1264.375 211.367188 C 1264.476562 211.117188 1264.582031 210.863281 1264.683594 210.613281 C 1264.785156 210.359375 1264.890625 210.105469 1264.988281 209.851562 C 1265.191406 209.347656 1265.390625 208.839844 1265.585938 208.328125 C 1265.878906 207.566406 1266.164062 206.796875 1266.441406 206.027344 C 1266.722656 205.257812 1266.992188 204.488281 1267.257812 203.710938 C 1267.269531 203.671875 1267.285156 203.628906 1267.296875 203.585938 C 1267.371094 203.371094 1267.445312 203.152344 1267.515625 202.9375 C 1268.203125 200.878906 1268.832031 198.800781 1269.410156 196.710938 C 1269.414062 196.699219 1269.417969 196.6875 1269.421875 196.671875 C 1269.433594 196.632812 1269.445312 196.589844 1269.457031 196.546875 C 1269.589844 196.0625 1269.71875 195.578125 1269.847656 195.09375 C 1269.859375 195.050781 1269.867188 195.007812 1269.878906 194.964844 C 1269.9375 194.742188 1269.996094 194.523438 1270.050781 194.300781 C 1270.117188 194.035156 1270.183594 193.769531 1270.25 193.507812 C 1270.316406 193.242188 1270.382812 192.976562 1270.445312 192.710938 C 1270.636719 191.917969 1270.820312 191.121094 1270.996094 190.320312 C 1271.175781 189.519531 1271.34375 188.71875 1271.503906 187.917969 C 1271.558594 187.652344 1271.609375 187.382812 1271.664062 187.117188 C 1271.816406 186.3125 1271.964844 185.507812 1272.105469 184.703125 C 1272.152344 184.4375 1272.195312 184.175781 1272.242188 183.910156 C 1272.242188 183.90625 1272.242188 183.898438 1272.246094 183.894531 C 1272.25 183.851562 1272.257812 183.808594 1272.265625 183.765625 C 1272.304688 183.539062 1272.339844 183.3125 1272.375 183.085938 C 1272.417969 182.816406 1272.460938 182.546875 1272.503906 182.277344 C 1272.667969 181.199219 1272.820312 180.121094 1272.960938 179.035156 C 1273.027344 178.496094 1273.09375 177.953125 1273.15625 177.414062 C 1273.25 176.597656 1273.332031 175.785156 1273.410156 174.96875 C 1273.589844 173.070312 1273.726562 171.164062 1273.820312 169.257812 C 1273.832031 168.992188 1273.84375 168.730469 1273.855469 168.464844 C 1273.855469 168.457031 1273.855469 168.449219 1273.855469 168.441406 C 1273.859375 168.394531 1273.859375 168.351562 1273.863281 168.308594 C 1273.871094 168.078125 1273.882812 167.851562 1273.890625 167.621094 C 1273.898438 167.347656 1273.90625 167.078125 1273.914062 166.804688 C 1273.921875 166.601562 1273.925781 166.398438 1273.933594 166.199219 C 1273.933594 166.128906 1273.9375 166.058594 1273.9375 165.988281 C 1273.9375 165.941406 1273.941406 165.898438 1273.941406 165.855469 C 1273.945312 165.625 1273.949219 165.398438 1273.953125 165.167969 C 1273.964844 164.472656 1273.972656 163.777344 1273.972656 163.085938 C 1273.972656 158.148438 1273.679688 153.210938 1273.101562 148.308594 C 1272.910156 146.683594 1272.6875 145.0625 1272.433594 143.445312 C 1271.96875 140.480469 1271.394531 137.535156 1270.71875 134.609375 C 1270.664062 134.371094 1270.605469 134.132812 1270.550781 133.890625 C 1270.542969 133.867188 1270.535156 133.839844 1270.53125 133.8125 C 1270.347656 133.042969 1270.15625 132.273438 1269.960938 131.507812 C 1269.953125 131.484375 1269.945312 131.457031 1269.9375 131.429688 C 1269.734375 130.640625 1269.519531 129.847656 1269.300781 129.0625 C 1269.152344 128.535156 1269.003906 128.011719 1268.847656 127.488281 C 1268.617188 126.703125 1268.378906 125.917969 1268.132812 125.140625 C 1267.804688 124.097656 1267.464844 123.0625 1267.109375 122.03125 C 1266.667969 120.742188 1266.203125 119.457031 1265.71875 118.183594 C 1265.136719 116.652344 1264.523438 115.132812 1263.882812 113.628906 C 1263.785156 113.402344 1263.6875 113.175781 1263.589844 112.949219 C 1263.582031 112.925781 1263.570312 112.902344 1263.558594 112.878906 C 1263.234375 112.125 1262.902344 111.378906 1262.5625 110.632812 C 1262.449219 110.386719 1262.335938 110.136719 1262.21875 109.890625 C 1262.105469 109.644531 1261.988281 109.398438 1261.871094 109.152344 C 1261.765625 108.925781 1261.660156 108.703125 1261.554688 108.484375 C 1261.542969 108.457031 1261.53125 108.433594 1261.519531 108.410156 C 1261.285156 107.917969 1261.042969 107.429688 1260.800781 106.941406 C 1260.4375 106.207031 1260.066406 105.476562 1259.6875 104.75 C 1259.574219 104.535156 1259.460938 104.316406 1259.347656 104.097656 C 1259.332031 104.074219 1259.320312 104.050781 1259.308594 104.027344 C 1258.9375 103.328125 1258.5625 102.632812 1258.179688 101.9375 C 1258.164062 101.914062 1258.152344 101.890625 1258.140625 101.867188 C 1257.875 101.390625 1257.609375 100.914062 1257.335938 100.441406 C 1257.203125 100.207031 1257.066406 99.96875 1256.929688 99.734375 C 1256.65625 99.261719 1256.378906 98.789062 1256.097656 98.324219 C 1255.816406 97.855469 1255.535156 97.386719 1255.25 96.921875 C 1255.121094 96.714844 1254.992188 96.503906 1254.859375 96.296875 C 1254.847656 96.273438 1254.832031 96.25 1254.820312 96.226562 C 1254.6875 96.019531 1254.558594 95.808594 1254.425781 95.601562 C 1254.410156 95.578125 1254.398438 95.558594 1254.382812 95.535156 C 1254.253906 95.328125 1254.121094 95.121094 1253.988281 94.914062 C 1253.972656 94.890625 1253.957031 94.867188 1253.941406 94.84375 C 1253.808594 94.636719 1253.675781 94.429688 1253.542969 94.226562 C 1253.527344 94.203125 1253.511719 94.179688 1253.5 94.15625 C 1253.492188 94.148438 1253.484375 94.136719 1253.476562 94.125 C 1253.1875 93.679688 1252.894531 93.234375 1252.597656 92.792969 C 1252.308594 92.363281 1252.015625 91.933594 1251.722656 91.503906 C 1251.707031 91.484375 1251.691406 91.460938 1251.675781 91.4375 C 1251.667969 91.425781 1251.65625 91.410156 1251.644531 91.398438 C 1251.347656 90.960938 1251.042969 90.527344 1250.738281 90.097656 C 1250.597656 89.894531 1250.453125 89.695312 1250.3125 89.496094 C 1250.296875 89.472656 1250.28125 89.453125 1250.265625 89.429688 C 1250.105469 89.210938 1249.945312 88.988281 1249.785156 88.765625 C 1249.640625 88.570312 1249.496094 88.371094 1249.347656 88.171875 C 1249.332031 88.152344 1249.316406 88.128906 1249.300781 88.109375 C 1249.15625 87.910156 1249.007812 87.710938 1248.863281 87.515625 C 1248.84375 87.492188 1248.828125 87.472656 1248.8125 87.449219 C 1248.664062 87.253906 1248.519531 87.054688 1248.371094 86.859375 C 1248.351562 86.839844 1248.335938 86.816406 1248.320312 86.796875 C 1248.15625 86.578125 1247.992188 86.363281 1247.824219 86.148438 C 1247.675781 85.953125 1247.523438 85.757812 1247.375 85.5625 C 1247.355469 85.542969 1247.339844 85.519531 1247.324219 85.5 C 1246.988281 85.070312 1246.648438 84.640625 1246.308594 84.214844 C 1246.15625 84.023438 1246 83.832031 1245.847656 83.640625 C 1245.832031 83.617188 1245.8125 83.597656 1245.796875 83.578125 C 1245.785156 83.5625 1245.773438 83.546875 1245.761719 83.53125 C 1245.277344 82.9375 1244.792969 82.347656 1244.296875 81.761719 C 1244.277344 81.738281 1244.253906 81.710938 1244.234375 81.683594 C 1244.074219 81.496094 1243.914062 81.308594 1243.753906 81.121094 C 1243.738281 81.101562 1243.71875 81.082031 1243.703125 81.0625 C 1243.542969 80.875 1243.382812 80.6875 1243.222656 80.5 C 1243.203125 80.480469 1243.1875 80.460938 1243.167969 80.441406 C 1243.007812 80.253906 1242.847656 80.070312 1242.683594 79.882812 C 1242.667969 79.863281 1242.648438 79.84375 1242.632812 79.824219 C 1242.46875 79.640625 1242.308594 79.453125 1242.144531 79.269531 C 1242.125 79.25 1242.109375 79.230469 1242.089844 79.210938 C 1241.925781 79.027344 1241.761719 78.84375 1241.597656 78.660156 C 1241.582031 78.640625 1241.5625 78.621094 1241.542969 78.601562 C 1241.378906 78.417969 1241.214844 78.234375 1241.050781 78.054688 C 1241.03125 78.035156 1241.011719 78.011719 1240.996094 77.992188 C 1240.828125 77.8125 1240.664062 77.628906 1240.496094 77.449219 C 1240.476562 77.429688 1240.460938 77.410156 1240.441406 77.390625 C 1240.273438 77.210938 1240.105469 77.03125 1239.9375 76.851562 C 1239.921875 76.832031 1239.902344 76.8125 1239.882812 76.792969 C 1239.714844 76.613281 1239.546875 76.433594 1239.378906 76.253906 C 1239.359375 76.234375 1239.339844 76.214844 1239.324219 76.195312 C 1239.152344 76.015625 1238.984375 75.839844 1238.8125 75.660156 C 1238.796875 75.640625 1238.777344 75.625 1238.757812 75.605469 C 1238.570312 75.40625 1238.378906 75.210938 1238.1875 75.015625 C 1238.015625 74.839844 1237.84375 74.664062 1237.671875 74.488281 C 1237.652344 74.46875 1237.636719 74.449219 1237.617188 74.429688 C 1237.425781 74.238281 1237.234375 74.042969 1237.039062 73.851562 C 1236.867188 73.675781 1236.691406 73.503906 1236.515625 73.328125 C 1236.5 73.3125 1236.480469 73.292969 1236.460938 73.273438 C 1236.285156 73.101562 1236.109375 72.929688 1235.933594 72.757812 C 1235.914062 72.738281 1235.894531 72.71875 1235.875 72.699219 C 1235.867188 72.691406 1235.855469 72.679688 1235.847656 72.671875 C 1235.539062 72.371094 1235.230469 72.074219 1234.921875 71.777344 C 1234.867188 71.726562 1234.808594 71.671875 1234.753906 71.621094 C 1234.664062 71.535156 1234.578125 71.449219 1234.488281 71.367188 C 1234.179688 71.074219 1233.871094 70.785156 1233.5625 70.5 C 1233.542969 70.480469 1233.523438 70.464844 1233.503906 70.445312 C 1233.324219 70.277344 1233.140625 70.109375 1232.960938 69.945312 C 1232.941406 69.925781 1232.921875 69.910156 1232.902344 69.890625 C 1232.71875 69.726562 1232.539062 69.558594 1232.355469 69.394531 C 1232.335938 69.375 1232.316406 69.359375 1232.296875 69.339844 C 1232.113281 69.175781 1231.929688 69.011719 1231.746094 68.847656 C 1231.726562 68.828125 1231.707031 68.8125 1231.6875 68.792969 C 1231.503906 68.628906 1231.320312 68.46875 1231.132812 68.304688 C 1231.113281 68.289062 1231.09375 68.269531 1231.074219 68.253906 C 1230.890625 68.089844 1230.703125 67.925781 1230.519531 67.765625 C 1230.5 67.75 1230.476562 67.730469 1230.457031 67.714844 C 1230.25 67.535156 1230.042969 67.355469 1229.835938 67.179688 C 1229.652344 67.019531 1229.464844 66.859375 1229.277344 66.699219 C 1229.257812 66.683594 1229.234375 66.667969 1229.214844 66.648438 C 1229.027344 66.492188 1228.839844 66.332031 1228.648438 66.171875 C 1228.628906 66.15625 1228.609375 66.140625 1228.589844 66.121094 C 1228.398438 65.964844 1228.210938 65.808594 1228.019531 65.652344 C 1228 65.636719 1227.980469 65.617188 1227.957031 65.601562 C 1227.769531 65.445312 1227.578125 65.289062 1227.386719 65.132812 C 1227.367188 65.117188 1227.34375 65.097656 1227.324219 65.082031 C 1227.132812 64.925781 1226.941406 64.773438 1226.75 64.617188 C 1226.730469 64.601562 1226.707031 64.585938 1226.6875 64.566406 C 1226.472656 64.398438 1226.261719 64.226562 1226.046875 64.058594 C 1225.855469 63.90625 1225.660156 63.753906 1225.46875 63.601562 C 1225.445312 63.585938 1225.425781 63.570312 1225.402344 63.554688 C 1224.996094 63.234375 1224.585938 62.917969 1224.171875 62.601562 C 1224.148438 62.585938 1224.128906 62.570312 1224.105469 62.554688 C 1223.890625 62.390625 1223.671875 62.226562 1223.453125 62.0625 C 1223.257812 61.914062 1223.058594 61.765625 1222.863281 61.621094 C 1222.839844 61.605469 1222.820312 61.589844 1222.796875 61.574219 C 1222.578125 61.410156 1222.359375 61.25 1222.136719 61.085938 C 1221.960938 60.957031 1221.785156 60.828125 1221.605469 60.699219 C 1221.5625 60.667969 1221.519531 60.636719 1221.476562 60.605469 C 1221.277344 60.464844 1221.078125 60.320312 1220.875 60.179688 C 1220.855469 60.164062 1220.832031 60.148438 1220.808594 60.132812 C 1220.609375 59.988281 1220.410156 59.847656 1220.207031 59.707031 C 1220.1875 59.691406 1220.164062 59.675781 1220.140625 59.660156 C 1219.941406 59.519531 1219.738281 59.378906 1219.535156 59.238281 C 1219.511719 59.222656 1219.492188 59.207031 1219.46875 59.191406 C 1219.265625 59.050781 1219.066406 58.914062 1218.863281 58.773438 C 1218.839844 58.757812 1218.816406 58.746094 1218.796875 58.730469 C 1218.59375 58.589844 1218.390625 58.453125 1218.183594 58.316406 C 1218.164062 58.300781 1218.140625 58.285156 1218.117188 58.269531 C 1217.914062 58.132812 1217.707031 57.996094 1217.503906 57.859375 C 1217.480469 57.847656 1217.457031 57.832031 1217.4375 57.816406 C 1217.230469 57.679688 1217.027344 57.546875 1216.820312 57.410156 C 1216.796875 57.394531 1216.773438 57.382812 1216.753906 57.367188 C 1216.546875 57.234375 1216.339844 57.097656 1216.132812 56.964844 C 1216.113281 56.949219 1216.089844 56.9375 1216.066406 56.921875 C 1215.859375 56.789062 1215.652344 56.65625 1215.445312 56.523438 C 1215.421875 56.511719 1215.398438 56.496094 1215.375 56.480469 C 1215.167969 56.347656 1214.960938 56.21875 1214.753906 56.085938 C 1214.730469 56.074219 1214.707031 56.058594 1214.683594 56.042969 C 1214.476562 55.914062 1214.269531 55.785156 1214.058594 55.65625 C 1214.035156 55.640625 1214.011719 55.625 1213.988281 55.613281 C 1213.78125 55.484375 1213.570312 55.355469 1213.359375 55.226562 C 1213.339844 55.214844 1213.316406 55.199219 1213.292969 55.1875 C 1213.082031 55.058594 1212.871094 54.929688 1212.660156 54.804688 C 1212.636719 54.789062 1212.613281 54.777344 1212.589844 54.761719 C 1212.378906 54.636719 1212.167969 54.511719 1211.957031 54.382812 C 1211.933594 54.371094 1211.910156 54.355469 1211.886719 54.34375 C 1211.675781 54.21875 1211.464844 54.09375 1211.25 53.972656 C 1211.226562 53.957031 1211.203125 53.945312 1211.179688 53.929688 C 1210.96875 53.808594 1210.757812 53.683594 1210.542969 53.5625 C 1210.519531 53.546875 1210.496094 53.535156 1210.472656 53.523438 C 1210.257812 53.398438 1210.046875 53.277344 1209.832031 53.15625 C 1209.808594 53.144531 1209.785156 53.128906 1209.761719 53.117188 C 1209.75 53.109375 1209.738281 53.105469 1209.726562 53.097656 C 1209.5 52.972656 1209.273438 52.84375 1209.046875 52.71875 C 1208.832031 52.597656 1208.617188 52.480469 1208.402344 52.359375 C 1208.378906 52.347656 1208.355469 52.335938 1208.332031 52.320312 C 1208.117188 52.203125 1207.898438 52.085938 1207.683594 51.96875 C 1207.660156 51.957031 1207.636719 51.945312 1207.613281 51.929688 C 1207.394531 51.8125 1207.179688 51.699219 1206.960938 51.582031 C 1206.9375 51.570312 1206.914062 51.558594 1206.890625 51.546875 C 1206.757812 51.476562 1206.621094 51.402344 1206.488281 51.332031 C 1206.382812 51.277344 1206.273438 51.21875 1206.164062 51.164062 C 1205.949219 51.050781 1205.730469 50.9375 1205.511719 50.824219 C 1205.488281 50.8125 1205.464844 50.800781 1205.4375 50.785156 C 1205.222656 50.675781 1205.003906 50.5625 1204.78125 50.453125 C 1204.757812 50.4375 1204.734375 50.425781 1204.710938 50.414062 C 1204.652344 50.386719 1204.597656 50.355469 1204.539062 50.328125 C 1204.351562 50.234375 1204.167969 50.140625 1203.980469 50.046875 C 1203.871094 49.996094 1203.765625 49.941406 1203.660156 49.890625 C 1203.546875 49.835938 1203.433594 49.777344 1203.316406 49.722656 C 1203.074219 49.601562 1202.828125 49.480469 1202.582031 49.363281 C 1202.558594 49.351562 1202.535156 49.339844 1202.507812 49.328125 C 1202.289062 49.222656 1202.066406 49.117188 1201.84375 49.011719 C 1201.820312 49 1201.796875 48.988281 1201.769531 48.976562 C 1201.550781 48.871094 1201.328125 48.765625 1201.101562 48.660156 C 1201.078125 48.648438 1201.054688 48.640625 1201.03125 48.628906 C 1200.535156 48.398438 1200.039062 48.171875 1199.542969 47.945312 C 1199.320312 47.84375 1199.09375 47.746094 1198.871094 47.644531 C 1198.84375 47.632812 1198.820312 47.625 1198.796875 47.613281 C 1198.570312 47.511719 1198.34375 47.414062 1198.121094 47.316406 C 1198.09375 47.304688 1198.070312 47.292969 1198.046875 47.28125 C 1197.820312 47.183594 1197.59375 47.089844 1197.367188 46.992188 C 1197.203125 46.921875 1197.039062 46.851562 1196.875 46.78125 C 1196.789062 46.746094 1196.703125 46.707031 1196.613281 46.671875 C 1196.589844 46.660156 1196.566406 46.652344 1196.539062 46.640625 C 1196.390625 46.578125 1196.238281 46.515625 1196.085938 46.453125 C 1195.988281 46.410156 1195.886719 46.367188 1195.785156 46.328125 C 1195.558594 46.234375 1195.332031 46.140625 1195.101562 46.046875 C 1195.078125 46.039062 1195.050781 46.027344 1195.027344 46.015625 C 1194.800781 45.925781 1194.570312 45.835938 1194.34375 45.742188 C 1194.089844 45.644531 1193.839844 45.542969 1193.585938 45.445312 C 1193.585938 45.445312 1193.582031 45.445312 1193.582031 45.441406 C 1193.554688 45.433594 1193.53125 45.421875 1193.507812 45.414062 C 1193.277344 45.324219 1193.046875 45.238281 1192.816406 45.148438 C 1192.355469 44.972656 1191.890625 44.796875 1191.425781 44.625 C 1191.378906 44.609375 1191.332031 44.589844 1191.285156 44.574219 C 1191.261719 44.5625 1191.234375 44.554688 1191.210938 44.546875 C 1190.980469 44.460938 1190.746094 44.375 1190.515625 44.292969 C 1190.492188 44.285156 1190.464844 44.273438 1190.441406 44.265625 C 1190.210938 44.183594 1189.976562 44.101562 1189.746094 44.019531 C 1189.722656 44.007812 1189.695312 44 1189.671875 43.992188 C 1189.4375 43.910156 1189.207031 43.828125 1188.972656 43.75 C 1188.949219 43.738281 1188.921875 43.730469 1188.898438 43.722656 C 1188.664062 43.640625 1188.433594 43.5625 1188.199219 43.484375 C 1188.175781 43.472656 1188.148438 43.464844 1188.125 43.457031 C 1187.890625 43.378906 1187.65625 43.300781 1187.421875 43.222656 C 1187.164062 43.136719 1186.90625 43.054688 1186.644531 42.96875 C 1186.621094 42.960938 1186.59375 42.953125 1186.570312 42.945312 C 1186.335938 42.867188 1186.101562 42.792969 1185.867188 42.71875 C 1185.65625 42.652344 1185.445312 42.585938 1185.238281 42.523438 C 1185.1875 42.507812 1185.136719 42.488281 1185.085938 42.472656 C 1185.058594 42.464844 1185.035156 42.457031 1185.007812 42.449219 C 1184.773438 42.378906 1184.539062 42.304688 1184.304688 42.234375 C 1184.277344 42.226562 1184.253906 42.21875 1184.226562 42.210938 C 1183.730469 42.058594 1183.234375 41.914062 1182.734375 41.769531 C 1182.707031 41.761719 1182.683594 41.753906 1182.65625 41.746094 C 1182.589844 41.726562 1182.523438 41.710938 1182.457031 41.691406 C 1182.261719 41.632812 1182.066406 41.578125 1181.871094 41.523438 C 1181.765625 41.496094 1181.664062 41.464844 1181.558594 41.4375 C 1181.398438 41.394531 1181.238281 41.347656 1181.082031 41.304688 C 1180.84375 41.238281 1180.605469 41.175781 1180.367188 41.113281 C 1180.34375 41.105469 1180.316406 41.097656 1180.289062 41.089844 C 1180.054688 41.027344 1179.816406 40.964844 1179.578125 40.902344 C 1179.550781 40.894531 1179.527344 40.886719 1179.5 40.882812 C 1179.261719 40.820312 1179.023438 40.757812 1178.785156 40.699219 C 1178.574219 40.644531 1178.363281 40.589844 1178.152344 40.539062 C 1178.097656 40.527344 1178.042969 40.511719 1177.992188 40.5 C 1177.964844 40.492188 1177.9375 40.488281 1177.914062 40.480469 C 1177.675781 40.421875 1177.433594 40.363281 1177.195312 40.304688 C 1177.167969 40.300781 1177.144531 40.292969 1177.117188 40.285156 C 1176.878906 40.230469 1176.640625 40.171875 1176.398438 40.117188 C 1176.375 40.109375 1176.347656 40.105469 1176.320312 40.097656 C 1176.070312 40.039062 1175.820312 39.984375 1175.574219 39.929688 C 1175.554688 39.925781 1175.539062 39.921875 1175.523438 39.917969 C 1175.285156 39.863281 1175.042969 39.808594 1174.804688 39.753906 C 1174.777344 39.75 1174.75 39.742188 1174.722656 39.738281 C 1174.484375 39.683594 1174.242188 39.632812 1174.003906 39.582031 C 1172.964844 39.359375 1171.925781 39.152344 1170.882812 38.957031 C 1170.855469 38.953125 1170.824219 38.949219 1170.792969 38.941406 C 1170.769531 38.9375 1170.742188 38.933594 1170.714844 38.925781 C 1170.472656 38.882812 1170.230469 38.839844 1169.988281 38.796875 C 1169.960938 38.789062 1169.9375 38.785156 1169.910156 38.78125 C 1169.667969 38.738281 1169.425781 38.695312 1169.183594 38.652344 C 1168.644531 38.5625 1168.105469 38.472656 1167.570312 38.386719 C 1167.03125 38.300781 1166.492188 38.21875 1165.957031 38.140625 C 1165.953125 38.140625 1165.953125 38.136719 1165.949219 38.136719 C 1165.921875 38.132812 1165.898438 38.128906 1165.871094 38.125 C 1165.628906 38.089844 1165.382812 38.054688 1165.140625 38.023438 C 1164.871094 37.984375 1164.601562 37.949219 1164.328125 37.914062 C 1164.074219 37.878906 1163.816406 37.84375 1163.558594 37.8125 C 1163.542969 37.8125 1163.53125 37.808594 1163.519531 37.808594 C 1163.492188 37.804688 1163.464844 37.800781 1163.4375 37.796875 C 1163.195312 37.765625 1162.949219 37.734375 1162.707031 37.707031 C 1162.433594 37.675781 1162.164062 37.644531 1161.890625 37.613281 C 1161.882812 37.609375 1161.875 37.609375 1161.867188 37.609375 C 1161.867188 37.609375 1161.867188 37.609375 1161.863281 37.609375 C 1157.160156 37.078125 1152.429688 36.8125 1147.699219 36.8125 C 1147.59375 36.8125 1147.488281 36.8125 1147.382812 36.8125 Z M 1147.746094 44.792969 C 1156.203125 44.800781 1164.71875 45.292969 1169.511719 46.265625 C 1173.261719 47.027344 1176.738281 47.902344 1177.238281 48.210938 C 1177.882812 48.609375 1177.460938 49.546875 1175.785156 51.441406 L 1173.421875 54.109375 L 1169.976562 52.585938 C 1165.652344 50.671875 1158.097656 50.023438 1153.894531 51.203125 C 1149.1875 52.519531 1144.027344 56.582031 1142.164062 60.429688 C 1140.257812 64.367188 1139.984375 72.671875 1141.609375 77.273438 L 1142.652344 80.230469 L 1136.921875 80.257812 C 1129.703125 80.292969 1124.25 82.101562 1107.191406 90.121094 C 1093.96875 96.339844 1086.996094 98.851562 1080.574219 99.703125 C 1078.507812 99.976562 1076.816406 100.484375 1076.816406 100.835938 C 1076.816406 101.183594 1077.898438 102.027344 1079.222656 102.714844 C 1081.3125 103.792969 1082.269531 103.839844 1086.464844 103.066406 C 1093.320312 101.804688 1103.972656 98.273438 1115.210938 93.542969 C 1134.792969 85.296875 1143.621094 84.585938 1146.929688 90.980469 C 1148.640625 94.289062 1148.074219 102.128906 1146.078125 102.792969 C 1145.628906 102.945312 1145.082031 102.394531 1144.867188 101.574219 C 1144.152344 98.847656 1139.953125 97.011719 1134.40625 97.007812 C 1129.914062 97.007812 1126.78125 97.914062 1105.308594 105.445312 C 1084.125 112.871094 1081.40625 114 1082.59375 114.882812 C 1083.335938 115.433594 1094.28125 122.71875 1106.921875 131.070312 C 1119.5625 139.425781 1130.941406 147.074219 1132.203125 148.070312 C 1134.886719 150.183594 1138.316406 156.449219 1138.316406 159.238281 C 1138.316406 161.875 1140.179688 164.324219 1143.117188 165.550781 L 1145.5625 166.574219 L 1145.222656 176.703125 C 1144.625 194.265625 1148.183594 204.460938 1158.53125 214.808594 C 1166.328125 222.609375 1172.441406 225.640625 1180.304688 225.605469 C 1184.746094 225.585938 1186.65625 225.207031 1189.316406 223.808594 C 1193.847656 221.425781 1200.515625 214.457031 1202.816406 209.695312 C 1203.847656 207.558594 1204.914062 205.800781 1205.1875 205.785156 C 1205.460938 205.769531 1207.523438 207.609375 1209.769531 209.871094 C 1214.757812 214.898438 1218.210938 221.679688 1219.375 228.734375 C 1220.523438 235.691406 1219.003906 243.636719 1215.03125 251.480469 C 1211.292969 258.855469 1207.8125 261.433594 1201.007812 261.867188 C 1198.378906 262.035156 1195.671875 261.859375 1194.992188 261.480469 C 1193.902344 260.867188 1194.023438 260.453125 1196.039062 257.917969 C 1200.421875 252.402344 1200.621094 247.210938 1196.664062 241.570312 C 1194.265625 238.152344 1192.191406 238.8125 1188.324219 244.230469 C 1181.519531 253.769531 1175.164062 257.789062 1166.984375 257.730469 C 1160.042969 257.675781 1154.296875 254.613281 1147.234375 247.199219 C 1137.894531 237.394531 1133.507812 226.960938 1133.59375 214.757812 C 1133.625 210.410156 1134.113281 206.167969 1134.847656 203.882812 C 1135.507812 201.820312 1136.050781 199.878906 1136.058594 199.570312 C 1136.074219 198.625 1132.367188 198.945312 1130.605469 200.039062 C 1125.203125 203.402344 1118.980469 201.09375 1115.5 194.445312 C 1114.136719 191.839844 1113.503906 189.753906 1113.820312 188.925781 C 1114.296875 187.6875 1114.460938 187.679688 1116.171875 188.800781 C 1120.199219 191.4375 1128.320312 189.757812 1131.316406 185.667969 C 1136.652344 178.386719 1135.175781 169.230469 1127.917969 164.574219 C 1125.957031 163.316406 1123.632812 161.515625 1122.746094 160.574219 C 1120.75 158.449219 1118.816406 153.929688 1118.816406 151.394531 C 1118.816406 147.992188 1113.765625 146.019531 1101.378906 144.582031 C 1096.757812 144.046875 1095.785156 144.816406 1098.941406 146.507812 C 1101.570312 147.914062 1101.441406 149.761719 1098.753906 149.179688 C 1097.105469 148.820312 1096.265625 149.183594 1094.566406 150.992188 C 1091.925781 153.804688 1090.484375 153.867188 1089.882812 151.195312 C 1088.316406 144.253906 1087.960938 143.492188 1085.738281 142.34375 C 1084.488281 141.695312 1082.578125 141.269531 1081.488281 141.398438 C 1079.605469 141.621094 1079.445312 141.988281 1078.199219 148.953125 C 1076.96875 155.808594 1074.214844 167.628906 1072.179688 174.761719 C 1070.949219 179.078125 1072.011719 180.257812 1077.132812 180.257812 C 1081.640625 180.257812 1082.816406 181.128906 1082.816406 184.476562 C 1082.816406 186.785156 1084.066406 188.796875 1085.871094 189.398438 C 1086.945312 189.757812 1088.816406 196.980469 1088.816406 200.769531 C 1088.816406 204.449219 1091.019531 208.089844 1094.320312 209.867188 C 1096.914062 211.265625 1100.210938 211.25 1112.746094 209.773438 L 1116.800781 209.292969 L 1116.351562 214.835938 C 1115.328125 227.472656 1109.273438 242.757812 1102.609375 249.515625 C 1098.601562 253.582031 1091.835938 258.390625 1087.09375 260.542969 C 1085.359375 261.332031 1083.542969 261.984375 1083.054688 261.992188 C 1081.5 262.019531 1071.703125 254.1875 1064.671875 247.296875 C 1054.246094 237.074219 1047.859375 228.296875 1041.503906 215.449219 C 1024.953125 181.988281 1024.996094 143.589844 1041.628906 110.390625 C 1058.445312 76.835938 1088.253906 54.25 1126.316406 46.226562 C 1130.890625 45.261719 1139.289062 44.785156 1147.746094 44.792969 Z M 1159.847656 58.007812 C 1164.617188 58.011719 1167.710938 59.996094 1170.460938 64.808594 L 1172.667969 68.675781 L 1173.917969 66.035156 C 1175.878906 61.902344 1177.621094 60.757812 1182.488281 60.40625 C 1190.667969 59.816406 1197.320312 64.699219 1198.132812 71.886719 C 1198.339844 73.738281 1198.621094 75.257812 1198.753906 75.257812 C 1198.890625 75.257812 1200.28125 74.382812 1201.847656 73.3125 C 1204.320312 71.625 1205.300781 71.410156 1209.355469 71.660156 C 1214.703125 71.992188 1216.816406 73.472656 1219.308594 78.617188 C 1222.191406 84.570312 1220.78125 90.523438 1214.917969 97.121094 C 1213.214844 99.042969 1211.808594 101.234375 1211.800781 101.996094 C 1211.792969 102.757812 1213.320312 106.417969 1215.191406 110.132812 C 1224.054688 127.699219 1224.421875 144.058594 1216.3125 160.382812 C 1212.007812 169.042969 1211.226562 170 1203.246094 176.339844 C 1195.78125 182.269531 1194.035156 184.636719 1193.40625 189.648438 C 1192.800781 194.5 1190.902344 197.785156 1187.765625 199.40625 C 1184.175781 201.265625 1178.183594 201.566406 1175.203125 200.042969 C 1170.90625 197.84375 1166.808594 190.605469 1168.039062 187.398438 C 1168.492188 186.214844 1169.285156 186.105469 1174.808594 186.449219 C 1180.261719 186.789062 1181.070312 186.679688 1181.089844 185.609375 C 1181.105469 184.933594 1181.609375 183.726562 1182.214844 182.925781 C 1182.820312 182.125 1183.316406 180.859375 1183.316406 180.113281 C 1183.316406 179.367188 1183.679688 178.757812 1184.125 178.757812 C 1185.539062 178.757812 1195.285156 172.09375 1199.238281 168.425781 C 1204.394531 163.636719 1209.683594 155.371094 1211.878906 148.664062 C 1213.433594 143.917969 1213.683594 141.746094 1213.644531 133.382812 C 1213.605469 124.757812 1213.367188 122.988281 1211.589844 118.085938 C 1210.484375 115.035156 1208.679688 110.984375 1207.574219 109.085938 C 1205.019531 104.691406 1197.414062 97.371094 1192.019531 94.113281 C 1185.300781 90.054688 1182.390625 89.335938 1171.316406 88.992188 C 1165.75 88.820312 1160.492188 88.539062 1159.636719 88.363281 C 1157.484375 87.921875 1150.292969 80.46875 1148.277344 76.585938 C 1146.039062 72.285156 1146.105469 68.304688 1148.476562 64.257812 C 1150.832031 60.234375 1154.890625 58.007812 1159.847656 58.007812 Z M 1159.375 63.289062 C 1158.054688 63.3125 1156.722656 63.71875 1155.546875 64.523438 C 1152.859375 66.363281 1152.59375 66.96875 1152.578125 71.207031 C 1152.5625 75.828125 1154.71875 79.5 1158.582031 81.441406 C 1160.019531 82.164062 1162.113281 82.753906 1163.242188 82.753906 L 1165.292969 82.757812 L 1164.035156 80.121094 C 1162.828125 77.589844 1162.84375 77.351562 1164.421875 74.101562 C 1166.59375 69.628906 1166.507812 67.34375 1164.082031 65.097656 C 1162.761719 63.871094 1161.074219 63.261719 1159.375 63.289062 Z M 1185.191406 65.429688 C 1183.484375 65.429688 1181.773438 66.1875 1180.257812 67.699219 C 1178.289062 69.667969 1178.066406 70.382812 1178.066406 74.722656 C 1178.066406 80.082031 1179.355469 82.484375 1183.625 85.089844 C 1184.898438 85.867188 1186.042969 86.5 1186.164062 86.503906 C 1186.285156 86.503906 1186.164062 85.324219 1185.894531 83.882812 C 1185.441406 81.480469 1185.695312 80.964844 1188.859375 77.847656 C 1193.105469 73.660156 1193.4375 71.011719 1190.125 67.699219 C 1188.613281 66.1875 1186.902344 65.429688 1185.191406 65.429688 Z M 1207.265625 78.257812 C 1203.53125 78.257812 1202.421875 79.050781 1200.28125 83.28125 C 1198.460938 86.875 1198.738281 91.4375 1201.007812 95.3125 C 1203.117188 98.910156 1203.496094 98.90625 1204.667969 95.28125 C 1205.242188 93.492188 1206.398438 92.390625 1209.191406 90.960938 C 1213.453125 88.78125 1215.171875 86.078125 1214.4375 82.730469 C 1213.777344 79.722656 1211.425781 78.257812 1207.265625 78.257812 Z M 1124.695312 106.847656 C 1133.007812 106.949219 1137.429688 113.164062 1135.085938 121.945312 C 1134.582031 123.839844 1134.25 124 1130.992188 123.941406 C 1124.550781 123.824219 1121.332031 122.140625 1119.027344 117.691406 C 1117.914062 115.535156 1117.449219 108.625 1118.355469 107.71875 C 1118.609375 107.464844 1120.691406 107.097656 1122.980469 106.910156 C 1123.570312 106.859375 1124.140625 106.839844 1124.695312 106.847656 Z M 1146.800781 119.160156 C 1147.566406 119.121094 1148.351562 119.261719 1149.132812 119.613281 C 1152.34375 121.078125 1155.058594 127.097656 1154.660156 131.882812 C 1154.277344 136.527344 1152.480469 139.222656 1148.441406 141.214844 C 1142.953125 143.921875 1137.46875 143.804688 1132.511719 140.875 C 1125.585938 136.785156 1128.480469 130.007812 1137.15625 130.007812 C 1140.46875 130.007812 1140.566406 129.941406 1140.566406 127.679688 C 1140.566406 122.964844 1143.480469 119.339844 1146.800781 119.160156 Z M 1081.710938 124.914062 C 1080.421875 125.097656 1080.15625 125.773438 1079.96875 129.351562 C 1079.785156 132.832031 1079.984375 133.667969 1081.09375 134.128906 C 1081.835938 134.4375 1086.660156 136.15625 1091.816406 137.949219 C 1096.972656 139.742188 1102.375 141.210938 1103.816406 141.214844 L 1106.441406 141.214844 L 1103.816406 138.972656 C 1093.976562 130.570312 1084.464844 124.519531 1081.710938 124.914062 Z M 1163.214844 136.257812 C 1163.78125 136.292969 1164.308594 136.640625 1165.230469 137.324219 C 1168.492188 139.757812 1170.144531 143.359375 1170.167969 148.113281 C 1170.195312 153.160156 1168.636719 155.769531 1164.125 158.230469 C 1162.511719 159.113281 1160.011719 160.003906 1158.566406 160.21875 C 1150.777344 161.359375 1141.726562 155.097656 1144.277344 150.332031 C 1145.535156 147.980469 1149.28125 146.359375 1152.808594 146.636719 C 1155.824219 146.875 1155.917969 146.8125 1156.347656 144.257812 C 1156.984375 140.480469 1158.285156 138.441406 1160.9375 137.066406 C 1162.03125 136.503906 1162.644531 136.222656 1163.214844 136.257812 Z M 1176.511719 157.773438 C 1176.914062 157.800781 1177.308594 157.882812 1177.6875 158.027344 C 1179.898438 158.875 1181.816406 163.222656 1181.816406 167.402344 C 1181.816406 172.757812 1179.574219 176.753906 1175.441406 178.757812 C 1170.550781 181.125 1164.605469 180.519531 1159.6875 177.148438 C 1152.5 172.222656 1153.625 164.738281 1161.449219 165.429688 C 1163.371094 165.601562 1165.535156 166.003906 1166.257812 166.328125 C 1167.292969 166.792969 1167.800781 166.382812 1168.636719 164.402344 C 1170.363281 160.3125 1173.6875 157.609375 1176.511719 157.773438 Z M 1176.511719 157.773438 "
       id="path62" />
    <path
       style=" stroke:none;fill-rule:nonzero;fill:rgb(13.725281%,60.783386%,82.351685%);fill-opacity:1;"
       d="M 669.753906 275.914062 C 657.457031 273.125 649.414062 264.648438 646.636719 251.558594 C 645.800781 247.605469 645.589844 235.636719 645.578125 190.945312 L 645.566406 135.257812 L 661.261719 135.257812 L 661.492188 190.195312 C 661.699219 240.234375 661.839844 245.480469 663.039062 249.035156 C 665.015625 254.898438 668.496094 259.03125 673.585938 261.578125 C 677.320312 263.441406 678.898438 263.78125 684.085938 263.824219 C 700.183594 263.964844 711.367188 254.136719 714.617188 236.992188 C 715.003906 234.945312 715.316406 211.480469 715.316406 184.277344 L 715.316406 135.257812 L 731.066406 135.257812 L 731.066406 274.007812 L 716.816406 274.007812 L 716.816406 255.019531 L 713.019531 260.425781 C 708.5625 266.773438 701.707031 272.160156 694.835938 274.714844 C 688.925781 276.910156 676.71875 277.492188 669.753906 275.914062 Z M 804.003906 275.847656 C 795.484375 273.550781 789.140625 269.050781 784.375 261.914062 C 782.683594 259.386719 781.09375 256.007812 780.839844 254.410156 C 779.855469 248.257812 779.066406 251.972656 779.066406 262.757812 L 779.066406 274.007812 L 764.816406 274.007812 L 764.816406 88.007812 L 780.566406 88.007812 L 780.617188 121.945312 C 780.65625 146.980469 780.882812 155.390625 781.480469 154.007812 C 784.488281 147.058594 785.808594 144.941406 789.328125 141.410156 C 797.285156 133.429688 809.871094 130.464844 823.519531 133.359375 C 839.058594 136.652344 849.066406 148.09375 854.128906 168.351562 C 858.585938 186.1875 859.019531 217.109375 855.085938 236.882812 C 850.671875 259.078125 839.613281 272.824219 823.46875 276.179688 C 818.089844 277.296875 808.804688 277.140625 804.003906 275.847656 Z M 816.636719 263.492188 C 832.15625 260.550781 839.546875 244.957031 840.984375 212.132812 C 841.523438 199.867188 840.484375 183.4375 838.597656 174.269531 C 836.496094 164.082031 833.328125 157.148438 828.628906 152.453125 C 823.417969 147.25 819.453125 145.757812 810.835938 145.757812 C 790.566406 145.757812 782.183594 160.324219 780.839844 197.882812 C 779.828125 226.195312 783.800781 246.71875 792.039062 255.734375 C 798.679688 263 806.398438 265.433594 816.636719 263.492188 Z M 904.660156 275.960938 C 887.941406 271.898438 879.390625 257.523438 880.539062 235.394531 C 881.195312 222.816406 884.679688 214.597656 892.214844 207.886719 C 897.382812 203.28125 904.21875 200.519531 924.457031 194.859375 C 934.5 192.050781 943.78125 189.046875 945.082031 188.183594 C 948.828125 185.6875 950.34375 181.707031 950.683594 173.457031 C 951.222656 160.359375 948.171875 152.839844 940.601562 148.613281 C 931.523438 143.546875 915.480469 145.046875 908.558594 151.609375 C 904.183594 155.753906 900.566406 165.515625 900.566406 173.167969 L 900.566406 176.507812 L 884.59375 176.507812 L 885.074219 169.71875 C 886.097656 155.296875 892.34375 143.828125 902.359375 137.976562 C 914.15625 131.082031 936.472656 130.441406 949.609375 136.617188 C 958.15625 140.636719 964.09375 148.960938 965.765625 159.269531 C 966.253906 162.28125 966.558594 181.328125 966.5625 209.304688 C 966.570312 248.6875 966.71875 254.855469 967.75 257.433594 C 969.105469 260.816406 972.335938 262.757812 976.617188 262.757812 L 979.316406 262.757812 L 979.316406 268.335938 C 979.316406 271.695312 978.976562 274.128906 978.464844 274.445312 C 976.816406 275.464844 967.609375 275.671875 963.355469 274.789062 C 955.59375 273.179688 952.398438 269.019531 951.757812 259.691406 L 951.359375 253.855469 L 948.945312 258.867188 C 944.59375 267.894531 936.007812 274.285156 925.664062 276.199219 C 919.992188 277.246094 909.464844 277.128906 904.660156 275.960938 Z M 925.425781 263.175781 C 928.164062 262.59375 931.761719 261.425781 933.414062 260.582031 C 938.0625 258.214844 943.539062 252.386719 946.183594 247 C 950.046875 239.136719 950.789062 233.859375 950.804688 214.160156 L 950.816406 196.6875 L 948.003906 198.847656 C 944.109375 201.839844 940.941406 203.035156 927.566406 206.558594 C 904.15625 212.730469 897.445312 219.367188 897.265625 236.507812 C 897.148438 248.113281 900.5 255.757812 907.894531 260.722656 C 912.882812 264.074219 917.878906 264.773438 925.425781 263.175781 Z M 530.066406 211.382812 L 530.066406 148.757812 L 511.316406 148.757812 L 511.316406 135.257812 L 530.066406 135.257812 L 530.074219 123.445312 C 530.082031 104.953125 531.703125 98.425781 537.773438 92.476562 C 542.570312 87.777344 547.394531 86.320312 559.503906 85.925781 L 569.816406 85.585938 L 569.816406 99.363281 L 565.792969 98.863281 C 559.789062 98.113281 553.535156 99.640625 550.605469 102.570312 C 546.898438 106.277344 545.816406 111.144531 545.816406 124.140625 L 545.816406 135.257812 L 569.816406 135.257812 L 569.816406 148.757812 L 545.816406 148.757812 L 545.816406 274.007812 L 530.066406 274.007812 Z M 593.066406 204.632812 L 593.066406 135.257812 L 608.816406 135.257812 L 608.816406 274.007812 L 593.066406 274.007812 Z M 593.066406 101.132812 L 593.066406 88.007812 L 608.816406 88.007812 L 608.816406 114.257812 L 593.066406 114.257812 Z M 593.066406 101.132812 "
       id="path64" />
    <path
       style=" stroke:none;fill-rule:nonzero;fill:rgb(8.235168%,9.411621%,9.411621%);fill-opacity:1;"
       d="M 611.003906 385.835938 C 605.785156 384.132812 602.148438 379.539062 600.105469 372.078125 C 598.84375 367.464844 598.675781 349.972656 599.84375 344.761719 C 600.753906 340.703125 603.625 334.863281 605.574219 333.097656 C 609.910156 329.179688 619.039062 328.296875 624.636719 331.25 C 627.183594 332.597656 628.410156 333.929688 629.972656 337.0625 C 631.089844 339.300781 632.101562 342.3125 632.222656 343.757812 C 632.429688 346.222656 632.296875 346.394531 630 346.617188 C 627.382812 346.867188 627.230469 346.671875 626.476562 342.121094 C 625.550781 336.550781 619.25 332.566406 613.753906 334.085938 C 606.183594 336.175781 602.019531 350.011719 604.277344 365.601562 C 605.839844 376.40625 608.964844 381.121094 615.019531 381.800781 C 621.207031 382.5 624.574219 379.492188 626.828125 371.265625 C 627.523438 368.71875 628.3125 366.714844 628.582031 366.820312 C 628.847656 366.921875 629.957031 367.007812 631.042969 367.007812 C 632.96875 367.007812 633.007812 367.097656 632.535156 370.570312 C 631.804688 375.945312 628.660156 381.757812 625.265625 384.003906 C 622.117188 386.089844 614.699219 387.039062 611.003906 385.835938 Z M 650.816406 385.898438 C 646.84375 384.800781 644.1875 382.726562 642.625 379.5 C 641.105469 376.359375 641.027344 375.117188 641.019531 353.417969 L 641.011719 330.632812 L 645.660156 330.632812 L 645.59375 350.648438 C 645.515625 372.679688 645.972656 376.179688 649.351562 379.414062 C 653.710938 383.589844 662.8125 382.445312 665.578125 377.378906 C 666.792969 375.152344 666.96875 372.445312 667.171875 352.570312 L 667.398438 330.257812 L 672.664062 330.257812 L 672.429688 353.320312 C 672.214844 374.210938 672.058594 376.652344 670.761719 379.261719 C 668.515625 383.785156 664.582031 385.941406 658.109375 386.199219 C 655.128906 386.320312 651.847656 386.183594 650.816406 385.898438 Z M 1021.613281 385.074219 C 1013.839844 381.542969 1010.730469 373.882812 1010.785156 358.382812 C 1010.824219 347.242188 1011.839844 341.859375 1014.855469 336.820312 C 1017.964844 331.613281 1021.988281 329.355469 1028.152344 329.355469 C 1034.859375 329.355469 1039.085938 331.722656 1041.753906 336.96875 C 1042.890625 339.199219 1043.816406 342.144531 1043.816406 343.515625 C 1043.816406 345.761719 1043.601562 346.007812 1041.65625 346.007812 C 1039.6875 346.007812 1039.367188 345.621094 1038.09375 341.707031 C 1036.203125 335.90625 1033.144531 333.734375 1027.5 334.1875 C 1020.609375 334.742188 1017.476562 339.328125 1016.070312 350.910156 C 1014.890625 360.644531 1016.433594 372.644531 1019.457031 377.257812 C 1021.171875 379.878906 1025.027344 382 1028.066406 382 C 1033.714844 382 1037.898438 377.085938 1038.945312 369.226562 C 1039.1875 367.386719 1039.53125 364.953125 1039.707031 363.820312 L 1040.03125 361.757812 L 1026.566406 361.757812 L 1026.566406 357.257812 L 1044.566406 357.257812 L 1044.566406 385.855469 L 1042.527344 385.617188 C 1040.578125 385.390625 1040.492188 385.210938 1040.679688 381.632812 L 1040.875 377.882812 L 1038.140625 381.089844 C 1036.636719 382.855469 1034.445312 384.796875 1033.273438 385.402344 C 1030.371094 386.90625 1025.328125 386.761719 1021.613281 385.074219 Z M 526.308594 385.429688 C 526.300781 385.195312 526.292969 372.773438 526.289062 357.820312 L 526.277344 330.632812 L 553.648438 330.632812 L 553.652344 332.507812 L 553.652344 334.382812 L 530.816406 334.796875 L 530.816406 354.214844 L 541.484375 354.421875 L 552.152344 354.632812 L 552.152344 358.382812 L 541.453125 358.589844 L 530.757812 358.796875 L 530.859375 372.089844 L 530.957031 385.382812 L 528.636719 385.617188 C 527.359375 385.746094 526.3125 385.660156 526.308594 385.429688 Z M 554.066406 385.027344 C 554.066406 384.625 557.144531 373.910156 560.910156 361.214844 C 564.671875 348.519531 568.261719 336.359375 568.886719 334.195312 L 570.027344 330.257812 L 576.519531 330.257812 L 578.371094 336.445312 C 585.28125 359.511719 591.613281 381.25 592.019531 383.320312 C 592.492188 385.699219 592.441406 385.757812 589.871094 385.757812 L 587.238281 385.757812 L 585.003906 377.695312 L 582.773438 369.632812 L 563.9375 369.210938 L 562.75 373.359375 C 562.101562 375.640625 561.035156 379.363281 560.390625 381.632812 C 559.253906 385.601562 559.113281 385.757812 556.640625 385.757812 C 555.222656 385.757812 554.066406 385.429688 554.066406 385.027344 Z M 581.066406 364.367188 C 581.066406 363.742188 580.375 360.652344 579.53125 357.503906 C 576.75 347.121094 573.574219 336.015625 573.316406 335.753906 C 573.03125 335.46875 565.316406 363.359375 565.316406 364.675781 C 565.316406 365.230469 567.921875 365.507812 573.191406 365.507812 C 579.734375 365.507812 581.066406 365.3125 581.066406 364.367188 Z M 682.316406 358.007812 L 682.316406 330.257812 L 687.566406 330.257812 L 687.566406 381.257812 L 709.890625 381.257812 L 710.246094 383.113281 C 710.441406 384.136719 710.425781 385.148438 710.210938 385.363281 C 709.992188 385.578125 703.628906 385.757812 696.066406 385.757812 L 682.316406 385.757812 Z M 722.066406 360.257812 L 722.066406 334.757812 L 707.816406 334.757812 L 707.816406 330.257812 L 741.566406 330.257812 L 741.566406 334.757812 L 727.316406 334.757812 L 727.316406 385.757812 L 722.066406 385.757812 Z M 740.066406 384.890625 C 740.066406 384.242188 749.269531 352.492188 755.527344 331.570312 C 755.820312 330.578125 756.722656 330.257812 759.191406 330.257812 C 761.667969 330.257812 762.558594 330.578125 762.84375 331.570312 C 763.046875 332.289062 764.234375 336.257812 765.472656 340.382812 C 766.714844 344.507812 769.257812 353.113281 771.121094 359.507812 C 772.984375 365.898438 775.5 374.421875 776.714844 378.445312 L 778.917969 385.757812 L 773.238281 385.757812 L 768.769531 369.632812 L 749.597656 369.632812 L 748.273438 374.507812 C 747.546875 377.1875 746.570312 380.816406 746.105469 382.570312 C 745.316406 385.542969 745.085938 385.757812 742.664062 385.757812 C 741.199219 385.757812 740.066406 385.378906 740.066406 384.890625 Z M 767.066406 364.378906 C 767.066406 363.757812 765.746094 358.441406 764.132812 352.566406 C 762.519531 346.691406 760.808594 340.414062 760.332031 338.617188 C 759.859375 336.824219 759.335938 335.484375 759.175781 335.648438 C 758.757812 336.066406 751.316406 363.4375 751.316406 364.5625 C 751.316406 365.261719 753.371094 365.507812 759.191406 365.507812 C 765.699219 365.507812 767.066406 365.3125 767.066406 364.378906 Z M 785.066406 358.105469 L 785.066406 330.257812 L 793.929688 330.257812 C 804.964844 330.257812 809.480469 331.445312 812.796875 335.222656 C 817.195312 340.234375 818.097656 344.152344 818.0625 358.113281 C 818.023438 374.105469 815.886719 379.921875 808.765625 383.453125 C 805.582031 385.03125 803.761719 385.316406 795.082031 385.613281 L 785.066406 385.953125 Z M 803.382812 380.433594 C 809.433594 378.75 812.417969 373.097656 813.328125 361.605469 C 813.832031 355.199219 812.597656 345.566406 810.765625 341.652344 C 810.128906 340.289062 808.433594 338.277344 806.996094 337.183594 C 804.699219 335.429688 803.550781 335.15625 797.351562 334.886719 L 790.316406 334.578125 L 790.316406 381.257812 L 795.378906 381.25 C 798.164062 381.25 801.765625 380.878906 803.382812 380.429688 Z M 849.566406 358.105469 L 849.566406 330.257812 L 858.429688 330.257812 C 872.132812 330.257812 877.527344 332.671875 880.675781 340.21875 C 883.894531 347.941406 883.515625 369.703125 880.042969 376.558594 C 876.453125 383.628906 873.109375 385.101562 859.503906 385.59375 L 849.566406 385.953125 Z M 870.707031 379.25 C 875.855469 376.242188 878.59375 366.992188 877.867188 355.035156 C 877.308594 345.78125 876.082031 341.773438 872.816406 338.503906 C 869.722656 335.410156 867.476562 334.757812 859.972656 334.757812 L 854.816406 334.757812 L 854.816406 381.464844 L 861.519531 381.082031 C 866.246094 380.8125 868.953125 380.273438 870.707031 379.25 Z M 893.808594 385.570312 C 893.800781 385.464844 893.71875 372.976562 893.621094 357.820312 L 893.441406 330.257812 L 920.816406 330.257812 L 920.816406 334.757812 L 898.316406 334.757812 L 898.316406 354.257812 L 919.316406 354.257812 L 919.316406 358.757812 L 898.316406 358.757812 L 898.316406 381.257812 L 921.566406 381.257812 L 921.566406 385.757812 L 907.691406 385.757812 C 900.0625 385.757812 893.8125 385.671875 893.808594 385.570312 Z M 950.816406 358.007812 L 950.816406 330.164062 L 956.113281 330.632812 L 956.113281 385.382812 L 953.464844 385.613281 L 950.816406 385.847656 Z M 967.316406 358.007812 L 967.316406 330.257812 L 970.886719 330.257812 C 974.394531 330.257812 974.472656 330.308594 975.652344 333.445312 C 976.3125 335.195312 980.867188 345.742188 985.773438 356.882812 L 994.691406 377.132812 L 995.089844 330.257812 L 1000.316406 330.257812 L 1000.316406 385.839844 L 996.800781 385.609375 L 993.28125 385.382812 L 985.5 367.757812 C 981.21875 358.0625 976.777344 347.851562 975.632812 345.0625 C 974.488281 342.273438 973.328125 339.769531 973.058594 339.5 C 972.789062 339.226562 972.566406 349.527344 972.566406 362.382812 L 972.566406 385.757812 L 967.316406 385.757812 Z M 1055.058594 385.382812 C 1055.046875 385.175781 1055.042969 372.773438 1055.039062 357.820312 L 1055.027344 330.632812 L 1068.457031 330.425781 L 1081.886719 330.222656 L 1082.242188 332.097656 C 1082.441406 333.128906 1082.425781 334.148438 1082.207031 334.363281 C 1081.992188 334.578125 1076.808594 334.757812 1070.691406 334.757812 L 1059.566406 334.757812 L 1059.566406 354.257812 L 1080.390625 354.257812 L 1080.746094 356.113281 C 1080.941406 357.136719 1080.925781 358.148438 1080.707031 358.363281 C 1080.492188 358.578125 1075.648438 358.757812 1069.941406 358.757812 L 1059.566406 358.757812 L 1059.566406 381.257812 L 1071.066406 381.257812 C 1077.390625 381.257812 1082.742188 381.433594 1082.957031 381.648438 C 1083.175781 381.863281 1083.191406 382.878906 1082.996094 383.898438 L 1082.640625 385.757812 L 1068.851562 385.757812 C 1061.269531 385.757812 1055.0625 385.585938 1055.054688 385.382812 Z M 1091.066406 358.050781 L 1091.066406 330.257812 L 1098.246094 330.257812 L 1108.34375 353.488281 C 1113.898438 366.265625 1118.695312 376.730469 1119.003906 376.738281 C 1119.3125 376.75 1119.566406 366.273438 1119.566406 353.460938 L 1119.566406 330.160156 L 1121.839844 330.398438 L 1124.117188 330.632812 L 1124.117188 385.382812 L 1120.714844 385.609375 C 1117.660156 385.816406 1117.238281 385.644531 1116.585938 383.929688 C 1114.679688 378.910156 1097.5625 340.292969 1096.964844 339.648438 C 1096.550781 339.207031 1096.304688 348.097656 1096.34375 362.148438 L 1096.414062 385.382812 L 1093.742188 385.613281 L 1091.070312 385.847656 L 1091.070312 358.050781 Z M 1135.316406 358.007812 L 1135.316406 330.257812 L 1140.566406 330.257812 L 1140.566406 385.757812 L 1135.316406 385.757812 Z M 1151.808594 385.570312 C 1151.800781 385.464844 1151.71875 372.976562 1151.621094 357.820312 L 1151.441406 330.257812 L 1165.003906 330.257812 C 1172.464844 330.257812 1178.742188 330.433594 1178.960938 330.648438 C 1179.175781 330.863281 1179.191406 331.878906 1178.996094 332.898438 L 1178.640625 334.757812 L 1156.316406 334.757812 L 1156.316406 354.214844 L 1166.984375 354.421875 L 1177.652344 354.632812 L 1177.652344 358.382812 L 1156.316406 358.796875 L 1156.316406 381.257812 L 1179.390625 381.257812 L 1179.746094 383.113281 C 1179.941406 384.136719 1179.925781 385.148438 1179.710938 385.363281 C 1179.328125 385.742188 1151.828125 385.945312 1151.808594 385.570312 Z M 1188.539062 385.480469 C 1188.347656 385.289062 1188.285156 372.753906 1188.398438 357.625 L 1188.601562 330.121094 L 1199.78125 330.375 C 1212.148438 330.660156 1213.355469 331.074219 1216.878906 336.25 C 1218.253906 338.269531 1218.566406 339.757812 1218.566406 344.292969 C 1218.566406 347.351562 1218.1875 350.59375 1217.722656 351.492188 C 1216.402344 354.058594 1213.867188 356.597656 1211.816406 357.40625 L 1209.941406 358.148438 L 1212.53125 359.015625 C 1216.773438 360.433594 1218.015625 363.511719 1218.542969 373.863281 C 1218.816406 379.25 1219.351562 383.089844 1219.90625 383.644531 C 1220.40625 384.144531 1220.816406 384.828125 1220.816406 385.15625 C 1220.816406 386.011719 1214.996094 385.902344 1214.460938 385.039062 C 1214.214844 384.640625 1213.859375 382.28125 1213.667969 379.789062 C 1213.472656 377.296875 1213.15625 373.183594 1212.960938 370.652344 C 1212.320312 362.378906 1209.3125 360.070312 1199.609375 360.414062 L 1193.441406 360.632812 L 1193.183594 385.382812 L 1191.035156 385.605469 C 1189.855469 385.726562 1188.730469 385.671875 1188.539062 385.480469 Z M 1208.328125 354.605469 C 1212.097656 352.773438 1213.667969 350.007812 1213.667969 345.207031 C 1213.667969 337.363281 1210.125 334.757812 1199.464844 334.757812 L 1193.066406 334.757812 L 1193.066406 355.757812 L 1199.515625 355.757812 C 1203.78125 355.757812 1206.765625 355.367188 1208.328125 354.605469 Z M 1229.066406 358.007812 L 1229.066406 330.167969 L 1231.714844 330.398438 L 1234.363281 330.632812 L 1234.363281 385.382812 L 1231.714844 385.613281 L 1229.066406 385.847656 Z M 1241.378906 384.445312 C 1241.601562 383.722656 1244.863281 372.667969 1248.625 359.882812 C 1252.386719 347.09375 1255.863281 335.28125 1256.355469 333.632812 C 1257.210938 330.769531 1257.402344 330.621094 1260.597656 330.410156 L 1263.941406 330.191406 L 1265.371094 335.285156 C 1266.933594 340.851562 1275.242188 368.976562 1278.210938 378.742188 C 1279.230469 382.101562 1280.066406 385.074219 1280.066406 385.347656 C 1280.066406 385.621094 1278.808594 385.742188 1277.273438 385.613281 L 1274.480469 385.382812 L 1272.4375 377.957031 C 1271.3125 373.875 1270.09375 370.234375 1269.730469 369.871094 C 1269.367188 369.503906 1265.046875 369.300781 1260.128906 369.417969 L 1251.191406 369.632812 L 1246.691406 385.742188 L 1243.828125 385.75 C 1241.445312 385.757812 1241.035156 385.539062 1241.378906 384.445312 Z M 1268.339844 364.921875 C 1268.832031 364.125 1261.089844 335.519531 1260.378906 335.511719 C 1260.070312 335.507812 1259.816406 335.992188 1259.816406 336.585938 C 1259.816406 337.179688 1258.152344 343.660156 1256.121094 350.992188 C 1254.085938 358.324219 1252.585938 364.585938 1252.789062 364.914062 C 1253.265625 365.683594 1267.863281 365.691406 1268.339844 364.917969 Z M 1231.113281 322.398438 C 1233.871094 316.933594 1234.011719 316.792969 1236.753906 316.773438 C 1238.300781 316.765625 1239.566406 316.953125 1239.566406 317.191406 C 1239.566406 317.425781 1237.964844 319.957031 1236.003906 322.8125 C 1233.042969 327.121094 1232.089844 328 1230.363281 328.003906 L 1228.28125 328.003906 Z M 143.417969 275.921875 C 122.144531 272.613281 108.097656 261.234375 102.644531 242.882812 C 99.988281 233.953125 99.578125 225.632812 99.574219 180.445312 L 99.566406 136.757812 L 130.316406 136.757812 L 130.316406 183.550781 C 130.316406 228.933594 130.363281 230.503906 131.890625 235.488281 C 133.925781 242.144531 139.289062 247.746094 145.4375 249.644531 C 151.007812 251.363281 161.488281 251.914062 167.210938 250.789062 C 173.492188 249.550781 176.773438 247.761719 180.480469 243.554688 C 186.269531 236.976562 186.125 238.40625 186.394531 184.570312 L 186.628906 136.757812 L 216.636719 136.757812 L 216.371094 186.445312 C 216.078125 241.671875 216.292969 239.1875 210.796875 250.691406 C 206.050781 260.632812 195.925781 269.113281 183.773438 273.328125 C 173.878906 276.757812 156.132812 277.898438 143.417969 275.921875 Z M 56.382812 274.082031 C 42.484375 267.769531 41.960938 247.425781 55.523438 240.667969 C 63.285156 236.800781 74.125 238.882812 78.910156 245.15625 C 84.679688 252.722656 84.292969 263.445312 78.015625 269.910156 C 74.199219 273.839844 70.179688 275.472656 64.316406 275.472656 C 61.171875 275.472656 58.355469 274.980469 56.382812 274.082031 Z M 242.816406 205.335938 L 242.816406 136.660156 L 322.691406 137.175781 L 328.726562 139.199219 C 339.148438 142.699219 343.964844 146.75 348.117188 155.507812 C 350.3125 160.140625 350.429688 160.847656 350.433594 169.757812 C 350.441406 178.371094 350.277344 179.480469 348.425781 183.433594 C 345.511719 189.652344 342.964844 192.652344 337.625 196.164062 L 332.898438 199.269531 L 337.046875 200.957031 C 351.226562 206.71875 358.707031 220.15625 357.28125 237.289062 C 355.867188 254.238281 346.746094 265.105469 329.066406 270.894531 C 321.296875 273.441406 312.113281 273.980469 276.378906 273.992188 L 242.816406 274.007812 Z M 315.925781 248.449219 C 321.445312 246.382812 324.171875 243.964844 325.820312 239.671875 C 328.65625 232.292969 326.800781 223.035156 321.472656 217.976562 C 316.65625 213.40625 314.347656 212.984375 292.503906 212.675781 L 272.816406 212.394531 L 272.816406 250.007812 L 292.289062 250.007812 C 310.167969 250.007812 312.101562 249.878906 315.925781 248.449219 Z M 312.183594 190.519531 C 318.296875 187.789062 321.523438 182.761719 321.550781 175.921875 C 321.570312 170.875 320.242188 167.722656 316.824219 164.722656 C 312.496094 160.925781 310.113281 160.511719 290.628906 160.195312 L 272.816406 159.910156 L 272.816406 192.375 L 291.003906 192.113281 C 306.445312 191.894531 309.644531 191.652344 312.183594 190.519531 Z M 363.699219 272.636719 C 363.832031 271.867188 375.417969 240.976562 389.441406 203.992188 L 414.941406 136.75 L 430.675781 136.941406 L 446.414062 137.132812 L 471.699219 204.632812 C 485.609375 241.757812 497.003906 272.554688 497.027344 273.070312 C 497.058594 273.789062 493.476562 274.007812 481.5 274.007812 L 465.9375 274.007812 L 455.648438 243.257812 L 429.859375 243.257812 C 409.738281 243.257812 404.0625 243.460938 404.042969 244.195312 C 404.03125 244.710938 401.71875 251.542969 398.902344 259.382812 L 393.78125 273.632812 L 378.621094 273.835938 C 364.167969 274.027344 363.46875 273.972656 363.699219 272.636719 Z M 447.054688 220.195312 C 447.421875 219.558594 430.898438 171.257812 430.316406 171.269531 C 429.867188 171.277344 413.066406 218.617188 413.066406 219.878906 C 413.066406 220.875 446.480469 221.1875 447.054688 220.195312 Z M 447.054688 220.195312 "
       id="path66" />
  </g>
</svg>
