<?xml version="1.0" encoding="UTF-8" standalone="no"?>
<!-- Created with Inkscape (http://www.inkscape.org/) -->

<svg
   width="210mm"
   height="297mm"
   viewBox="0 0 210 297"
   version="1.1"
   id="svg2585"
   inkscape:version="1.1 (c68e22c387, 2021-05-23)"
   sodipodi:docname="footer.svg"
   xmlns:inkscape="http://www.inkscape.org/namespaces/inkscape"
   xmlns:sodipodi="http://sodipodi.sourceforge.net/DTD/sodipodi-0.dtd"
   xmlns:xlink="http://www.w3.org/1999/xlink"
   xmlns="http://www.w3.org/2000/svg"
   xmlns:svg="http://www.w3.org/2000/svg">
  <sodipodi:namedview
     id="namedview2587"
     pagecolor="#ffffff"
     bordercolor="#666666"
     borderopacity="1.0"
     inkscape:pageshadow="2"
     inkscape:pageopacity="0.0"
     inkscape:pagecheckerboard="0"
     inkscape:document-units="mm"
     showgrid="false"
     inkscape:zoom="0.74118967"
     inkscape:cx="397.33419"
     inkscape:cy="820.97744"
     inkscape:window-width="1920"
     inkscape:window-height="1017"
     inkscape:window-x="-8"
     inkscape:window-y="-8"
     inkscape:window-maximized="1"
     inkscape:current-layer="layer1" />
  <defs
     id="defs2582">
    <linearGradient
       inkscape:collect="always"
       id="linearGradient4914">
      <stop
         style="stop-color:#e20000;stop-opacity:1;"
         offset="0"
         id="stop4910" />
      <stop
         style="stop-color:#e20000;stop-opacity:0"
         offset="1"
         id="stop4912" />
    </linearGradient>
    <inkscape:path-effect
       effect="spiro"
       id="path-effect2940"
       is_visible="true"
       lpeversion="1" />
    <linearGradient
       inkscape:collect="always"
       xlink:href="#linearGradient4914"
       id="linearGradient4916"
       x1="87.814903"
       y1="452.28244"
       x2="87.814903"
       y2="-34.26923"
       gradientUnits="userSpaceOnUse" />
  </defs>
  <g
     inkscape:label="Capa 1"
     inkscape:groupmode="layer"
     id="layer1">
    <path
       style="fill:url(#linearGradient4916);stroke:none;stroke-width:0.264583px;stroke-linecap:butt;stroke-linejoin:miter;stroke-opacity:1;fill-opacity:1"
       d="m -1.0709134,204.1875 c -0.7654928,-3.61887 -1.8781642,-7.19505 -2.046096,-10.89019 -0.083966,-1.84757 0.07411,-3.71899 0.6215606,-5.48558 0.5474511,-1.76659 1.4967881,-3.42743 2.85241957,-4.68553 1.59405333,-1.47937 3.70459603,-2.35106 5.86497013,-2.60071 2.1603741,-0.24965 4.3665721,0.10149 6.4103831,0.84471 4.087621,1.48645 7.447273,4.45057 10.573567,7.47455 3.126294,3.02398 6.184329,6.21788 9.976391,8.34824 1.89603,1.06518 3.967806,1.84997 6.124329,2.13095 2.156524,0.28097 4.401691,0.0427 6.385697,-0.84798 1.876151,-0.84223 3.462311,-2.2345 4.794827,-3.80093 1.332516,-1.56643 2.432645,-3.31351 3.552939,-5.03811 1.120295,-1.7246 2.273213,-3.44289 3.693675,-4.93003 1.420463,-1.48714 3.132663,-2.7445 5.093172,-3.36555 1.890912,-0.599 3.937434,-0.58152 5.885909,-0.2103 1.948475,0.37121 3.814674,1.08411 5.64014,1.86001 3.650933,1.55181 7.353504,3.40724 11.320101,3.34789 2.533069,-0.0379 5.011302,-0.87428 7.212256,-2.12874 2.200955,-1.25447 4.1441,-2.91682 5.952072,-4.6914 3.615941,-3.54914 6.808911,-7.63595 11.109721,-10.31448 3.26983,-2.03644 7.06634,-3.16325 10.90476,-3.48793 3.83842,-0.32469 7.7199,0.13582 11.4473,1.10817 7.45478,1.9447 14.21603,5.87279 20.84322,9.80165 6.6272,3.92886 13.32031,7.94487 20.71842,10.09516 3.69905,1.07514 7.5579,1.66915 11.40649,1.50408 3.84859,-0.16508 7.68931,-1.10504 11.06682,-2.95743 2.56741,-1.40809 4.82281,-3.31003 7.19286,-5.02967 2.37005,-1.71965 4.93433,-3.29237 7.79993,-3.8946 2.0951,-0.4403 4.29337,-0.33924 6.35884,0.22391 2.06546,0.56316 3.99784,1.58265 5.67373,2.91482 3.35177,2.66435 5.62262,6.52883 6.85494,10.62939 2.46463,8.2011 0.95422,16.98506 0.032,25.4987 -2.7864,25.72211 0.004,51.89054 -3.92668,77.46275 -4.71263,30.65664 -19.42241,59.86271 -42.00196,81.12777 -22.57954,21.26505 -53.0064,34.27597 -84.01785,34.84888 -31.011456,0.5729 -62.261831,-11.55507 -84.035549,-33.64451 -21.7737188,-22.08945 -33.498109,-53.99151 -30.186226,-84.83093 1.566862,-14.59022 6.2831087,-28.62488 9.8606137,-42.85623 3.57750511,-14.23134 6.0271376,-29.17435 2.9903479,-43.5308 z"
       id="path2938"
       inkscape:path-effect="#path-effect2940"
       inkscape:original-d="m -1.0709134,204.1875 c 4.52137,-27.01108 -6.1872362,80.33426 1.42788417,-21.0613 C 1.0862377,173.41599 -173.27028,-97.392687 45.692308,198.47596 c 5.70926,7.71452 -78.891824,-144.813903 17.134613,-17.13462 5.259537,6.99322 6.131784,93.74336 22.84615,4.9976 3.178166,-16.87463 7.496666,-21.89397 24.274049,-17.13462 16.77738,4.75935 69.51237,63.1693 86.38701,16.0637 3.19622,-8.92223 155.91469,-22.77497 14.99279,-8.92427 -338.70683,33.29027 12.61325,26.17815 18.91947,39.26682 6.30623,13.08868 -0.83266,49.50027 -3.92668,77.46275 -3.09401,27.96247 -161.707668,2.26109 -240.241585,-2.49879 -78.533916,-4.75988 8.3295916,-59.37595 12.8509616,-86.38703 z"
       sodipodi:nodetypes="sssssssssszs" />
  </g>
</svg>
